<svg xmlns="http://www.w3.org/2000/svg" xmlns:xlink="http://www.w3.org/1999/xlink" width="6000" zoomAndPan="magnify" viewBox="0 0 4500 2999.999989" height="4000" preserveAspectRatio="xMidYMid meet" version="1.2"><defs><clipPath id="df7c82a356"><path d="M 0 1109 L 3837.644531 1109 L 3837.644531 3000 L 0 3000 Z M 0 1109 "/></clipPath></defs><g id="dea1379e9b"><path style=" stroke:none;fill-rule:evenodd;fill:#feb100;fill-opacity:1;" d="M 1498.117188 1351.1875 C 1498.117188 1360.441406 1505.648438 1367.96875 1514.902344 1367.96875 L 1563.292969 1367.96875 C 1572.546875 1367.96875 1580.074219 1360.441406 1580.074219 1351.1875 C 1580.074219 1341.929688 1572.546875 1334.402344 1563.292969 1334.402344 L 1514.902344 1334.402344 C 1505.648438 1334.402344 1498.117188 1341.929688 1498.117188 1351.1875 Z M 1498.117188 1351.1875 "/><path style=" stroke:none;fill-rule:evenodd;fill:#feb100;fill-opacity:1;" d="M 1567.605469 1400.828125 C 1567.605469 1410.085938 1575.132812 1417.613281 1584.390625 1417.613281 L 1905.160156 1417.613281 C 1914.417969 1417.613281 1921.945312 1410.085938 1921.945312 1400.828125 C 1921.945312 1391.574219 1914.417969 1384.046875 1905.160156 1384.046875 L 1584.390625 1384.046875 C 1575.132812 1384.046875 1567.605469 1391.574219 1567.605469 1400.828125 Z M 1567.605469 1400.828125 "/><path style=" stroke:none;fill-rule:evenodd;fill:#feb100;fill-opacity:1;" d="M 1594.664062 1351.421875 C 1594.664062 1360.675781 1602.191406 1368.203125 1611.445312 1368.203125 L 1887.515625 1368.203125 C 1896.769531 1368.203125 1904.300781 1360.675781 1904.300781 1351.421875 C 1904.300781 1342.167969 1896.769531 1334.636719 1887.515625 1334.636719 L 1611.445312 1334.636719 C 1602.113281 1334.558594 1594.664062 1342.089844 1594.664062 1351.421875 Z M 1594.664062 1351.421875 "/><path style=" stroke:none;fill-rule:evenodd;fill:#feb100;fill-opacity:1;" d="M 1725.402344 1446.160156 C 1725.402344 1455.414062 1732.933594 1462.945312 1742.1875 1462.945312 L 1818.183594 1462.945312 C 1827.4375 1462.945312 1834.96875 1455.414062 1834.96875 1446.160156 C 1834.96875 1436.90625 1827.4375 1429.378906 1818.183594 1429.378906 L 1742.1875 1429.378906 C 1732.933594 1429.378906 1725.402344 1436.90625 1725.402344 1446.160156 Z M 1725.402344 1446.160156 "/><path style=" stroke:none;fill-rule:evenodd;fill:#feb100;fill-opacity:1;" d="M 1601.015625 1386.554688 L 1735.519531 1386.554688 C 1728.382812 1386.554688 1722.582031 1381.222656 1722.582031 1374.558594 C 1722.582031 1367.96875 1728.382812 1362.558594 1735.519531 1362.558594 L 1601.015625 1362.558594 C 1608.152344 1362.558594 1613.957031 1367.890625 1613.957031 1374.558594 C 1613.957031 1381.222656 1608.152344 1386.554688 1601.015625 1386.554688 Z M 1601.015625 1386.554688 "/><path style=" stroke:none;fill-rule:evenodd;fill:#feb100;fill-opacity:1;" d="M 1438.121094 1400.828125 C 1438.121094 1411.496094 1446.824219 1420.199219 1457.492188 1420.199219 L 1542.429688 1420.199219 C 1553.097656 1420.199219 1561.800781 1411.496094 1561.800781 1400.828125 C 1561.800781 1390.164062 1553.097656 1381.457031 1542.429688 1381.457031 L 1457.492188 1381.457031 C 1446.824219 1381.457031 1438.121094 1390.164062 1438.121094 1400.828125 Z M 1438.121094 1400.828125 "/><path style=" stroke:none;fill-rule:evenodd;fill:#feb100;fill-opacity:1;" d="M 1528 1302.953125 C 1528 1313.621094 1536.703125 1322.324219 1547.371094 1322.324219 L 1701.324219 1322.324219 C 1711.992188 1322.324219 1720.699219 1313.621094 1720.699219 1302.953125 C 1720.699219 1292.210938 1711.992188 1283.582031 1701.324219 1283.582031 L 1547.371094 1283.582031 C 1536.703125 1283.582031 1528 1292.210938 1528 1302.953125 Z M 1528 1302.953125 "/><g clip-rule="nonzero" clip-path="url(#df7c82a356)"><path style=" stroke:none;fill-rule:evenodd;fill:#fff0d9;fill-opacity:1;" d="M 0.445312 1110.808594 L 0.445312 2999.789062 L 3837.644531 2999.789062 L 3837.644531 2611.578125 C 3774.429688 2582.089844 3721.097656 2563.109375 3686.824219 2558.640625 C 3324.640625 2510.878906 3080.652344 2647.339844 2702.703125 2440.84375 C 2418.554688 2285.558594 2318.875 1920.796875 1985.628906 1824.332031 C 1649.796875 1727.085938 1286.4375 1923.070312 962.136719 1788.570312 C 510.542969 1601.289062 466.625 1081.789062 0.445312 1110.808594 Z M 0.445312 1110.808594 "/></g><path style=" stroke:none;fill-rule:evenodd;fill:#aa381e;fill-opacity:1;" d="M 0.445312 2357.398438 L 0.445312 2954.617188 L 152.910156 2960.65625 C 152.910156 2960.65625 130.398438 2792.039062 132.203125 2721.609375 C 132.910156 2694.003906 130.636719 2667.96875 126.949219 2643.417969 C 127.027344 2626.164062 127.417969 2608.910156 130.476562 2592.128906 C 133.851562 2573.148438 144.988281 2556.210938 148.671875 2537.855469 C 150.476562 2528.679688 150.792969 2519.191406 148.125 2509.152344 C 146.164062 2501.859375 143.027344 2495.035156 139.183594 2488.527344 C 131.105469 2475.117188 119.65625 2463.273438 111.027344 2451.039062 C 109.695312 2449.078125 108.125 2446.960938 106.558594 2444.53125 C 106.949219 2443.589844 107.421875 2442.726562 107.890625 2441.785156 C 139.417969 2381.945312 227.414062 2228.542969 245.847656 2146.664062 C 268.824219 2045.101562 437.996094 2058.671875 500.976562 1982.753906 C 508.816406 1973.34375 515.953125 1964.324219 522.621094 1955.695312 C 552.1875 1951.070312 581.835938 1943.855469 611.011719 1929.816406 C 638.070312 1916.796875 662.144531 1898.917969 684.5 1878.527344 C 716.734375 1849.195312 745.515625 1814.453125 775.632812 1781.984375 C 808.101562 1769.511719 844.492188 1756.886719 881.589844 1749.59375 C 920.648438 1741.90625 960.644531 1740.179688 997.742188 1750.847656 C 1043.230469 1763.867188 1082.367188 1795.707031 1112.953125 1829.273438 C 1158.914062 1879.546875 1185.578125 1933.738281 1185.578125 1933.738281 C 1169.109375 2001.734375 1208.011719 2077.179688 1230.910156 2108.394531 C 1250.832031 2135.449219 1292.871094 2175.054688 1314.90625 2209.5625 C 1321.261719 2229.71875 1328.085938 2251.914062 1331.0625 2264.148438 C 1331.222656 2280.148438 1328.710938 2295.207031 1326.59375 2305.007812 C 1322.984375 2314.105469 1318.203125 2325.476562 1321.417969 2333.714844 C 1325.496094 2344.144531 1338.359375 2341.398438 1344.320312 2334.496094 C 1349.496094 2328.457031 1351.21875 2317.714844 1351.535156 2309.949219 C 1351.535156 2309.402344 1351.691406 2311.046875 1351.847656 2311.597656 C 1352.238281 2312.539062 1352.789062 2313.402344 1353.417969 2314.183594 C 1355.296875 2316.382812 1357.730469 2318.261719 1360.238281 2319.753906 C 1366.277344 2323.359375 1372.082031 2321.480469 1376.082031 2315.753906 C 1384.316406 2304.066406 1385.257812 2285.480469 1379.769531 2272.304688 C 1378.121094 2268.460938 1375.453125 2265.324219 1372.632812 2262.421875 C 1372.394531 2262.109375 1369.257812 2259.363281 1369.179688 2258.816406 C 1369.101562 2258.582031 1373.023438 2256.226562 1373.179688 2256.070312 C 1376.238281 2253.875 1379.140625 2251.285156 1380.632812 2247.679688 C 1383.53125 2240.621094 1380.160156 2230.269531 1377.257812 2223.835938 C 1368.476562 2204.152344 1351.0625 2190.664062 1332.710938 2181.644531 C 1328.242188 2179.449219 1323.769531 2177.722656 1319.457031 2176.074219 C 1305.417969 2153.253906 1287.851562 2141.097656 1250.359375 2100.550781 C 1198.597656 2044.554688 1207.460938 1938.363281 1207.460938 1938.363281 C 1217.96875 1982.207031 1250.988281 2026.046875 1283.929688 2075.691406 C 1304.867188 2107.21875 1345.339844 2139.921875 1372.160156 2159.527344 C 1373.886719 2161.410156 1375.613281 2163.371094 1377.414062 2165.175781 C 1388.472656 2176.3125 1401.964844 2185.800781 1415.6875 2192.859375 C 1425.492188 2197.878906 1441.882812 2203.683594 1452.785156 2199.445312 C 1459.6875 2196.859375 1462.667969 2187.839844 1465.019531 2181.410156 C 1472.078125 2162.195312 1471.53125 2139.605469 1460.628906 2121.882812 C 1458.117188 2117.882812 1454.277344 2116.472656 1449.882812 2117.335938 C 1448.550781 2117.570312 1447.453125 2117.960938 1446.199219 2118.511719 C 1445.335938 2118.902344 1444.160156 2120.785156 1443.84375 2119.921875 C 1441.648438 2114.511719 1441.726562 2107.921875 1440.160156 2102.277344 C 1436.863281 2090.277344 1429.882812 2078.828125 1421.648438 2069.886719 C 1417.726562 2065.652344 1410.589844 2058.671875 1404.160156 2060.082031 C 1400.867188 2060.867188 1398.277344 2063.457031 1396.003906 2065.886719 C 1394.984375 2066.984375 1394.199219 2070.433594 1393.101562 2069.414062 C 1390.199219 2066.59375 1388.789062 2058.984375 1387.0625 2055.378906 C 1380.789062 2042.515625 1371.457031 2034.359375 1357.339844 2033.339844 C 1344.398438 2032.320312 1328.945312 2037.496094 1321.183594 2049.101562 C 1317.339844 2054.90625 1315.847656 2062.355469 1316.164062 2069.808594 C 1311.613281 2065.335938 1307.066406 2060.789062 1302.671875 2056.160156 C 1252.636719 2004.480469 1225.34375 1898.601562 1225.34375 1898.601562 C 1240.636719 1901.503906 1269.734375 1912.796875 1301.339844 1927.226562 C 1310.90625 1929.269531 1392.238281 1934.992188 1458.195312 1943.621094 C 1469.960938 1950.679688 1481.414062 1958.207031 1492.863281 1964.324219 C 1506.117188 1971.382812 1520.234375 1975.617188 1533.800781 1981.65625 C 1539.136719 1984.007812 1544.3125 1986.675781 1549.410156 1989.890625 C 1558.117188 1995.539062 1564.78125 2003.539062 1572.9375 2009.578125 C 1577.015625 2012.554688 1581.328125 2015.222656 1586.269531 2016.949219 C 1598.425781 2021.417969 1611.523438 2021.339844 1624.9375 2018.753906 C 1646.898438 2014.515625 1669.953125 2003.460938 1690.894531 1998.125 C 1737.636719 1999.851562 1788.304688 1993.261719 1820.300781 1977.34375 C 1869.554688 1952.875 1938.496094 1969.578125 1960.691406 1983.617188 C 1982.886719 1997.65625 2029.863281 2045.652344 2029.863281 2045.652344 L 2046.019531 2042.515625 C 2046.019531 2042.515625 2002.335938 1992.714844 1966.492188 1969.421875 C 1930.652344 1946.128906 1830.027344 1954.835938 1830.027344 1954.835938 C 1835.597656 1942.992188 1869.710938 1922.601562 1882.808594 1898.054688 C 1884.222656 1895.386719 1885.320312 1892.40625 1886.183594 1889.269531 C 1920.925781 1892.328125 1956.140625 1892.328125 1990.964844 1892.722656 C 2007.980469 1892.878906 2032.765625 1897.738281 2048.609375 1888.25 C 2056.214844 1883.703125 2066.960938 1871.46875 2073.390625 1858.136719 C 2079.429688 1845.429688 2081.46875 1831.863281 2073 1823 C 2065.785156 1815.550781 2058.882812 1824.019531 2053.3125 1814.921875 C 2042.019531 1796.414062 2033.15625 1771.789062 2017.238281 1757.121094 C 2007.121094 1747.789062 1995.667969 1752.257812 1985.472656 1760.101562 C 1982.414062 1762.453125 1979.90625 1765.121094 1977.628906 1768.335938 C 1976.609375 1769.75 1975.90625 1774.140625 1974.964844 1772.726562 C 1959.59375 1749.828125 1940.847656 1721.203125 1911.042969 1721.4375 C 1897.085938 1721.515625 1886.105469 1730.378906 1880.535156 1743.320312 C 1878.105469 1749.042969 1876.457031 1755.472656 1877.476562 1761.75 C 1877.632812 1762.691406 1878.96875 1764.179688 1878.183594 1764.414062 C 1877.242188 1764.570312 1864.613281 1754.613281 1862.339844 1753.515625 C 1849.949219 1747.554688 1836.851562 1750.140625 1825.402344 1757.355469 C 1815.597656 1763.550781 1808.226562 1773.511719 1805.636719 1785.277344 C 1804.851562 1789.121094 1804.539062 1792.960938 1804.851562 1796.804688 C 1804.929688 1797.980469 1805.085938 1799.15625 1805.324219 1800.335938 C 1805.558594 1801.746094 1808.066406 1804.175781 1806.65625 1804.570312 C 1796.226562 1807.234375 1786.1875 1808.097656 1777.636719 1815.707031 C 1757.796875 1833.429688 1751.992188 1874.839844 1775.992188 1891.386719 C 1801.871094 1909.269531 1833.398438 1901.503906 1861.164062 1895.074219 C 1862.8125 1894.679688 1866.496094 1893.113281 1869.871094 1891.542969 C 1865.007812 1901.660156 1851.675781 1906.679688 1838.96875 1916.484375 C 1823.046875 1928.71875 1819.597656 1941.738281 1803.675781 1957.5 C 1787.753906 1973.265625 1746.03125 1974.050781 1706.425781 1975.695312 C 1666.816406 1977.34375 1620.625 1951.382812 1620.625 1951.382812 C 1647.445312 1936.5625 1659.132812 1921.03125 1696.070312 1867.625 C 1717.089844 1837.195312 1730.503906 1812.175781 1738.1875 1796.335938 C 1741.324219 1789.824219 1743.519531 1784.882812 1744.855469 1781.667969 C 1749.480469 1781.433594 1754.03125 1781.042969 1758.816406 1780.648438 C 1769.167969 1779.785156 1769.636719 1781.984375 1779.441406 1778.375 C 1779.441406 1778.375 1781.011719 1777.90625 1782.03125 1777.042969 C 1794.34375 1765.90625 1788.226562 1746.0625 1775.050781 1739.003906 C 1769.796875 1736.179688 1764.226562 1738.457031 1758.816406 1738.769531 C 1757.796875 1738.847656 1759.207031 1736.652344 1759.363281 1735.554688 C 1759.675781 1733.121094 1759.675781 1730.613281 1759.207031 1728.183594 C 1757.796875 1721.671875 1752.382812 1716.890625 1746.03125 1716.027344 C 1735.601562 1714.613281 1724.621094 1718.847656 1717.167969 1726.457031 C 1713.796875 1729.90625 1710.03125 1737.90625 1705.25 1739.398438 C 1704.308594 1739.632812 1704.148438 1737.75 1703.523438 1737.042969 C 1702.425781 1735.867188 1701.089844 1734.847656 1699.757812 1734.0625 C 1694.347656 1730.769531 1688.621094 1728.808594 1682.660156 1731.632812 C 1680.464844 1732.730469 1678.660156 1734.457031 1676.777344 1736.023438 C 1674.816406 1737.75 1673.09375 1739.554688 1671.757812 1741.90625 C 1663.523438 1756.886719 1675.054688 1772.414062 1688.621094 1777.90625 C 1700.542969 1782.6875 1711.757812 1781.824219 1724.226562 1782.140625 C 1728.855469 1782.296875 1733.402344 1782.21875 1737.875 1782.0625 C 1735.757812 1785.199219 1732.699219 1789.824219 1728.226562 1796.648438 C 1722.265625 1805.746094 1713.796875 1818.84375 1701.796875 1837.585938 C 1662.191406 1899.464844 1622.898438 1959.855469 1569.175781 1932.71875 C 1515.449219 1905.582031 1471.453125 1904.640625 1305.734375 1865.585938 C 1273.105469 1857.898438 1254.597656 1848.175781 1246.441406 1837.429688 C 1212.953125 1793.824219 1349.261719 1734.222656 1386.984375 1731.632812 C 1392.710938 1731.242188 1398.199219 1731.398438 1403.375 1732.023438 C 1415.453125 1736.808594 1427.53125 1744.730469 1437.101562 1751.789062 C 1464.316406 1771.945312 1483.453125 1802.84375 1517.097656 1813.039062 C 1518.585938 1813.511719 1520.078125 1813.902344 1521.566406 1814.292969 C 1537.722656 1818.292969 1552.234375 1816.648438 1565.410156 1809.273438 C 1571.527344 1805.902344 1577.332031 1801.199219 1582.898438 1795.316406 C 1589.253906 1788.570312 1594.664062 1780.179688 1595.605469 1770.53125 C 1596.625 1759.082031 1594.585938 1736.574219 1582.113281 1731.476562 C 1579.371094 1730.378906 1569.957031 1732.339844 1568.625 1731.082031 C 1566.585938 1729.203125 1566.898438 1719.632812 1566.195312 1716.96875 C 1563.527344 1706.691406 1556.703125 1696.496094 1548 1690.851562 C 1541.097656 1686.460938 1533.882812 1686.851562 1526.980469 1690.929688 C 1524.863281 1692.183594 1522.824219 1693.753906 1520.941406 1695.398438 C 1520.3125 1696.027344 1519.605469 1698.222656 1519.214844 1697.359375 C 1506.824219 1672.890625 1474.277344 1643.167969 1446.667969 1663.402344 C 1439.84375 1668.34375 1438.902344 1674.695312 1434.589844 1681.125 C 1433.570312 1682.617188 1426.667969 1681.519531 1426.199219 1681.363281 C 1420.550781 1680.34375 1415.140625 1678.222656 1409.492188 1677.125 C 1387.535156 1672.65625 1362.4375 1681.125 1355.378906 1705.4375 C 1353.886719 1710.457031 1352.945312 1716.652344 1354.4375 1721.910156 C 1306.515625 1725.046875 1264.320312 1739.710938 1264.320312 1739.710938 L 1361.339844 1650.148438 L 1360.242188 1649.128906 C 1361.652344 1648.734375 1363.140625 1648.34375 1364.554688 1648.109375 C 1375.691406 1646.070312 1386.59375 1649.597656 1397.652344 1648.816406 C 1405.414062 1648.265625 1412.632812 1645.285156 1419.847656 1642.617188 C 1437.101562 1636.265625 1458.980469 1624.816406 1449.882812 1601.445312 C 1442.824219 1583.328125 1420.316406 1578.703125 1404.710938 1586.621094 C 1401.886719 1588.035156 1398.515625 1589.917969 1396.632812 1592.660156 C 1395.691406 1593.996094 1396.554688 1596.816406 1394.984375 1597.289062 C 1392.082031 1598.152344 1385.179688 1592.660156 1382.59375 1591.5625 C 1374.121094 1588.113281 1362.671875 1587.5625 1354.90625 1592.976562 C 1350.121094 1596.269531 1345.964844 1601.289062 1344.867188 1607.328125 C 1344.082031 1611.640625 1345.496094 1616.109375 1343.300781 1620.03125 C 1337.886719 1629.835938 1313.261719 1645.285156 1321.183594 1659.714844 C 1321.886719 1660.972656 1321.96875 1663.714844 1321.886719 1666.851562 L 1269.261719 1713.910156 C 1285.339844 1679.949219 1309.652344 1623.40625 1335.613281 1577.683594 C 1358.828125 1571.484375 1382.90625 1566.78125 1404.160156 1557.917969 C 1424.785156 1549.371094 1442.746094 1537.058594 1455.375 1516.585938 C 1465.492188 1500.039062 1470.746094 1481.453125 1473.570312 1461.847656 L 1495.6875 1462.945312 L 1496.863281 1484.980469 C 1489.648438 1481.609375 1480.394531 1482.082031 1475.136719 1487.960938 C 1472.628906 1490.785156 1469.804688 1495.726562 1469.882812 1499.804688 C 1469.882812 1501.058594 1471.921875 1504.117188 1471.765625 1504.824219 C 1471.136719 1508.117188 1469.648438 1511.019531 1469.492188 1514.46875 C 1469.257812 1522.863281 1476.316406 1528.507812 1483.214844 1530.78125 C 1488 1532.351562 1493.175781 1532.902344 1498.117188 1532.902344 C 1509.019531 1532.820312 1519.84375 1530.941406 1530.824219 1531.644531 C 1538.980469 1532.195312 1547.605469 1533.839844 1555.761719 1532.507812 C 1559.214844 1531.960938 1563.839844 1530.234375 1565.253906 1526.546875 C 1568.625 1517.84375 1559.292969 1508.039062 1551.917969 1506.785156 C 1549.253906 1506.3125 1546.507812 1506.3125 1543.839844 1506.550781 C 1543.839844 1506.550781 1541.175781 1506.941406 1541.097656 1506.863281 C 1540.078125 1505.292969 1540.390625 1503.175781 1539.921875 1501.453125 C 1539.136719 1498.707031 1537.722656 1496.195312 1536 1494 C 1527.683594 1483.414062 1515.605469 1489.453125 1507.609375 1496.433594 L 1507.371094 1460.589844 C 1526.507812 1461.296875 1550.195312 1465.609375 1564.15625 1468.511719 C 1565.722656 1470.628906 1566.117188 1473.375 1566.976562 1476.121094 C 1568.390625 1480.433594 1571.449219 1484.511719 1575.683594 1486.078125 C 1578.898438 1487.257812 1582.585938 1487.570312 1585.878906 1486.550781 C 1587.917969 1485.921875 1590.035156 1484.980469 1591.210938 1483.019531 C 1592.625 1480.746094 1591.605469 1478.394531 1594.351562 1477.53125 C 1601.566406 1475.335938 1609.800781 1478.785156 1616.703125 1475.023438 C 1621.40625 1472.433594 1623.445312 1467.804688 1621.015625 1462.707031 C 1618.898438 1458.082031 1615.445312 1453.925781 1611.449219 1450.867188 C 1610.347656 1450.082031 1608.46875 1449.375 1607.527344 1448.433594 C 1605.25 1446.160156 1604.390625 1440.90625 1602.976562 1438.003906 C 1600.152344 1432.515625 1596.074219 1427.652344 1590.585938 1425.0625 C 1580.074219 1420.203125 1563.761719 1426.789062 1560.625 1439.101562 C 1559.371094 1443.886719 1561.253906 1449.0625 1562.039062 1453.691406 C 1562.039062 1453.769531 1562.039062 1453.769531 1562.039062 1453.847656 C 1533.332031 1444.515625 1496.550781 1443.023438 1475.53125 1443.101562 C 1475.921875 1438.398438 1476.15625 1433.691406 1476.394531 1428.984375 C 1499.765625 1406.007812 1522.746094 1371.421875 1522.746094 1371.421875 C 1593.800781 1352.441406 1646.582031 1346.324219 1675.367188 1348.992188 C 1683.679688 1349.773438 1689.40625 1350.792969 1693.328125 1351.8125 C 1696.152344 1353.695312 1698.738281 1355.96875 1701.089844 1358.324219 C 1706.738281 1364.046875 1709.875 1371.578125 1719.128906 1371.5 C 1720.621094 1371.5 1722.265625 1371.261719 1723.757812 1370.871094 C 1732.855469 1368.597656 1735.050781 1360.832031 1739.441406 1353.148438 C 1743.128906 1346.636719 1748.933594 1341.695312 1747.835938 1333.304688 C 1747.597656 1331.34375 1746.816406 1329.617188 1745.953125 1327.816406 C 1745.246094 1326.402344 1744.460938 1324.835938 1743.519531 1323.5 C 1741.640625 1320.914062 1738.738281 1318.875 1735.519531 1319.1875 C 1733.796875 1319.34375 1732.382812 1319.972656 1730.816406 1320.757812 C 1730.265625 1321.070312 1729.5625 1322.324219 1729.167969 1321.777344 C 1727.757812 1319.421875 1727.835938 1315.503906 1726.894531 1312.835938 C 1724.777344 1306.71875 1718.972656 1301.621094 1713.011719 1300.128906 C 1710.1875 1299.425781 1707.445312 1300.128906 1705.089844 1302.011719 C 1704.148438 1302.71875 1703.445312 1303.660156 1702.660156 1304.601562 C 1702.347656 1304.992188 1702.1875 1306.246094 1701.875 1305.855469 C 1700.386719 1304.523438 1699.445312 1302.640625 1697.875 1301.308594 C 1691.835938 1296.210938 1682.425781 1293.308594 1675.050781 1296.992188 C 1672.308594 1298.328125 1670.503906 1300.757812 1668.777344 1303.347656 C 1668.308594 1304.128906 1667.835938 1304.914062 1667.523438 1305.777344 C 1667.445312 1306.011719 1667.523438 1306.71875 1667.210938 1306.640625 C 1663.054688 1306.011719 1658.582031 1302.5625 1654.347656 1305.542969 C 1652.308594 1306.953125 1650.976562 1309.621094 1650.113281 1311.894531 C 1647.679688 1317.855469 1647.054688 1325.621094 1648.074219 1331.972656 C 1648.230469 1332.835938 1648.386719 1333.777344 1648.542969 1334.636719 C 1595.605469 1336.992188 1526.980469 1355.027344 1526.980469 1355.027344 C 1526.980469 1355.027344 1538.429688 1298.875 1575.683594 1259.191406 C 1585.015625 1249.230469 1601.25 1240.683594 1620.152344 1233.46875 C 1630.582031 1234.488281 1641.09375 1234.488281 1650.425781 1234.175781 C 1670.738281 1233.46875 1792.617188 1221.625 1792.617188 1221.625 C 1811.285156 1209.785156 1810.734375 1177.628906 1796.304688 1162.882812 C 1791.128906 1157.628906 1785.167969 1156.609375 1778.578125 1159.199219 C 1775.914062 1160.21875 1773.402344 1161.628906 1770.972656 1163.199219 C 1769.714844 1163.980469 1768.460938 1167.039062 1767.441406 1165.941406 C 1764.539062 1162.570312 1763.597656 1155.277344 1761.714844 1151.042969 C 1757.480469 1141.789062 1749.71875 1132.613281 1740.382812 1129.003906 C 1735.679688 1127.199219 1730.5 1126.179688 1725.71875 1128.140625 C 1724.855469 1128.535156 1718.03125 1133.472656 1717.5625 1133.238281 C 1713.011719 1130.808594 1710.265625 1123.59375 1707.128906 1119.515625 C 1698.894531 1108.769531 1684.542969 1098.261719 1670.660156 1099.125 C 1661.40625 1099.671875 1652.9375 1105.398438 1649.25 1114.261719 C 1647.917969 1117.398438 1647.289062 1120.847656 1646.898438 1124.296875 C 1646.738281 1125.554688 1647.839844 1128.613281 1646.660156 1128.140625 C 1639.132812 1125.003906 1633.09375 1119.042969 1624.9375 1117.160156 C 1604.703125 1112.535156 1590.664062 1131.199219 1585.722656 1149.472656 C 1584.074219 1155.277344 1585.09375 1164.0625 1582.664062 1169.316406 C 1577.644531 1180.058594 1559.761719 1189.785156 1565.566406 1204.605469 C 1569.015625 1213.390625 1577.878906 1220.214844 1585.722656 1224.371094 C 1589.253906 1226.253906 1593.015625 1227.742188 1597.015625 1229.078125 C 1596.152344 1229.46875 1595.210938 1229.9375 1594.351562 1230.332031 C 1585.722656 1233.9375 1577.957031 1237.703125 1571.371094 1241.703125 C 1546.429688 1254.40625 1523.214844 1267.191406 1513.175781 1274.484375 C 1489.332031 1291.582031 1477.253906 1314.011719 1470.746094 1338.875 C 1465.257812 1360.128906 1464 1383.339844 1462.902344 1406.632812 C 1449.804688 1421.222656 1434.042969 1436.277344 1414.75 1451.652344 C 1362.90625 1492.902344 1329.496094 1533.449219 1307.851562 1566.625 C 1291.144531 1572.347656 1275.617188 1579.957031 1262.441406 1591.5625 C 1251.773438 1600.976562 1243.539062 1611.953125 1237.1875 1624.03125 C 1236.085938 1624.347656 1234.910156 1624.816406 1233.96875 1625.367188 C 1233.1875 1625.914062 1232.007812 1628.425781 1231.773438 1627.484375 C 1228.714844 1614.855469 1214.992188 1606.777344 1203.617188 1615.484375 C 1196.875 1620.660156 1197.894531 1626.777344 1194.285156 1632.894531 C 1193.65625 1633.835938 1188.636719 1634.542969 1188.011719 1634.699219 C 1182.992188 1636.03125 1178.757812 1638.621094 1177.578125 1644.1875 C 1177.5 1644.816406 1177.03125 1645.597656 1176.480469 1646.617188 L 1155.226562 1651.011719 C 1164.875 1626.148438 1182.992188 1597.757812 1192.636719 1583.484375 C 1199.148438 1580.425781 1206.441406 1578.703125 1213.890625 1578.074219 C 1221.265625 1577.445312 1229.5 1579.171875 1236.636719 1576.898438 C 1259.300781 1569.605469 1255.851562 1544.195312 1245.578125 1528.195312 C 1241.265625 1521.605469 1236.324219 1514.46875 1229.8125 1510.078125 C 1219.617188 1503.253906 1210.910156 1511.097656 1206.285156 1521.136719 C 1205.03125 1523.960938 1204.246094 1527.097656 1204.953125 1530.15625 C 1205.1875 1531.253906 1205.578125 1532.195312 1206.050781 1533.214844 C 1206.285156 1533.761719 1207.148438 1535.019531 1206.753906 1534.78125 C 1194.753906 1527.175781 1186.128906 1516.746094 1172.558594 1528.273438 C 1170.050781 1530.390625 1168.875 1532.117188 1167.070312 1535.019531 C 1163.226562 1541.371094 1161.894531 1549.292969 1163.382812 1556.664062 C 1164.011719 1559.800781 1165.03125 1562.703125 1166.519531 1565.449219 C 1167.070312 1566.546875 1169.816406 1568.664062 1168.71875 1568.425781 C 1159.226562 1566.074219 1145.03125 1564.269531 1140.5625 1576.347656 C 1136.484375 1587.484375 1146.601562 1604.269531 1157.503906 1606.621094 C 1158.601562 1606.855469 1160.953125 1607.5625 1163.382812 1608.269531 C 1150.363281 1629.914062 1134.523438 1658.773438 1121.269531 1690.460938 C 1093.113281 1757.59375 1069.503906 1710.929688 1012.410156 1678.304688 C 955.234375 1645.757812 891.550781 1641.285156 834.53125 1668.5 C 822.21875 1674.382812 804.496094 1680.65625 785.75 1686.382812 C 741.125 1700.105469 690.617188 1711.164062 692.96875 1708.417969 C 699.871094 1700.261719 706.144531 1691.480469 711.792969 1682.382812 C 714.066406 1681.363281 716.261719 1680.265625 718.535156 1679.085938 C 729.359375 1673.519531 740.417969 1666.304688 749.203125 1656.972656 C 749.671875 1656.5 750.066406 1656.03125 750.457031 1655.558594 C 756.808594 1648.5 761.910156 1640.265625 764.808594 1630.777344 C 770.222656 1612.660156 767.949219 1591.640625 761.125 1570.859375 C 760.652344 1569.449219 760.183594 1568.113281 759.710938 1566.703125 C 769.515625 1534.625 776.652344 1509.449219 785.828125 1502.472656 C 802.691406 1489.6875 830.847656 1487.960938 842.609375 1487.804688 C 841.828125 1490.472656 840.964844 1492.980469 840.492188 1494.15625 C 835.632812 1504.902344 841.433594 1514.15625 853.355469 1513.058594 C 857.042969 1512.746094 860.257812 1510.46875 863.316406 1508.511719 C 863.945312 1508.117188 863.945312 1510 864.335938 1510.707031 C 864.964844 1511.726562 865.746094 1512.824219 866.6875 1513.609375 C 869.90625 1516.351562 874.21875 1516.980469 878.140625 1516.902344 C 887.316406 1516.667969 894.6875 1510.550781 903.238281 1508.039062 C 907.078125 1506.863281 910.214844 1510.234375 914.453125 1510.46875 C 926.214844 1511.019531 938.765625 1502.390625 943.707031 1491.335938 C 949.039062 1479.570312 939.3125 1473.140625 932.648438 1465.53125 C 929.117188 1461.53125 928.019531 1458.628906 921.980469 1457.296875 C 915.316406 1455.730469 908.726562 1457.296875 902.453125 1459.808594 C 900.804688 1460.433594 893.824219 1464.589844 892.414062 1463.886719 C 889.746094 1462.707031 888.414062 1459.335938 884.726562 1458.160156 C 870.21875 1453.691406 857.90625 1459.101562 849.90625 1470.628906 L 814.847656 1475.804688 C 814.847656 1475.804688 848.492188 1430.082031 873.746094 1408.75 C 875.160156 1409.457031 876.570312 1410.476562 877.984375 1411.027344 C 884.023438 1413.222656 891.785156 1414.164062 897.980469 1412.4375 C 904.335938 1410.632812 909.355469 1406.085938 914.296875 1401.851562 C 915.707031 1400.671875 919 1396.753906 921.039062 1396.671875 C 923.078125 1396.59375 927.15625 1399.652344 929.273438 1400.203125 C 937.589844 1402.476562 949.195312 1403.574219 956.253906 1397.378906 C 964.644531 1389.929688 960.332031 1381.457031 960.726562 1372.046875 C 960.804688 1371.183594 962.527344 1369.300781 962.84375 1368.28125 C 963.941406 1364.363281 962.371094 1359.34375 959.625 1356.519531 C 954.6875 1351.578125 946.921875 1352.519531 940.648438 1351.65625 C 940.097656 1351.578125 940.882812 1350.480469 940.960938 1349.851562 C 941.039062 1349.226562 941.117188 1348.128906 941.117188 1347.578125 C 941.117188 1345.070312 940.570312 1342.636719 939.550781 1340.363281 C 936.960938 1334.558594 929.902344 1330.246094 923.941406 1329.617188 C 911.316406 1328.363281 903.941406 1338.875 900.570312 1350.324219 C 899.394531 1354.246094 899.238281 1359.734375 896.335938 1362.792969 C 893.589844 1365.617188 890.21875 1361.382812 887.707031 1360.125 C 883.941406 1358.324219 879.707031 1357.773438 875.628906 1359.027344 C 860.023438 1364.046875 853.75 1387.8125 862.296875 1401.851562 C 855.394531 1410.242188 844.492188 1421.925781 841.121094 1416.515625 C 836.101562 1408.359375 823.476562 1371.8125 851.710938 1320.519531 C 856.886719 1311.1875 861.589844 1302.5625 866.21875 1294.484375 C 909.824219 1292.367188 1025.664062 1285.621094 1033.585938 1274.171875 C 1043.308594 1260.132812 1044.09375 1231.664062 1024.644531 1226.566406 C 1013.898438 1223.742188 1003.234375 1230.644531 993.195312 1228.292969 C 992.566406 1228.136719 993.195312 1226.878906 993.195312 1226.253906 C 993.117188 1224.292969 992.960938 1222.410156 992.566406 1220.527344 C 992.175781 1218.722656 991.546875 1216.917969 990.839844 1215.273438 C 1016.957031 1210.253906 1035.308594 1208.921875 1045.976562 1208.683594 C 1047.546875 1209.546875 1048.644531 1210.488281 1049.035156 1211.429688 C 1051.308594 1217.15625 1056.09375 1219.351562 1061.503906 1221.15625 C 1072.40625 1224.839844 1083.308594 1224.917969 1092.71875 1217.3125 C 1095.699219 1214.878906 1098.054688 1211.902344 1100.09375 1208.527344 C 1101.113281 1206.882812 1101.425781 1203.507812 1103.230469 1203.664062 C 1111.542969 1204.292969 1117.425781 1204.84375 1124.5625 1198.648438 C 1130.757812 1193.15625 1138.992188 1182.253906 1134.367188 1173.238281 C 1131.386719 1167.511719 1123.542969 1162.335938 1117.191406 1163.039062 C 1112.171875 1163.667969 1106.914062 1166.960938 1101.738281 1165.550781 C 1098.996094 1164.765625 1097.347656 1160.140625 1095.386719 1158.335938 C 1091.074219 1154.414062 1085.503906 1151.984375 1079.859375 1151.355469 C 1067.308594 1149.945312 1058.917969 1158.882812 1049.191406 1165.550781 C 1046.445312 1167.433594 1042.527344 1161.941406 1038.683594 1163.355469 C 1026.449219 1167.746094 1024.410156 1184.214844 1026.449219 1196.527344 C 1002.839844 1197.15625 969.351562 1199.667969 945.117188 1208.371094 C 943.785156 1208.84375 942.449219 1209.3125 941.117188 1209.78125 C 939.941406 1208.058594 938.449219 1206.488281 936.804688 1205.15625 C 930.136719 1199.746094 922.765625 1198.726562 914.84375 1201.625 C 900.492188 1206.960938 895.472656 1219.820312 887.316406 1231.664062 C 886.84375 1232.371094 886.058594 1230.566406 885.277344 1230.175781 C 883.863281 1229.546875 882.375 1229.234375 880.882812 1228.996094 C 875.863281 1228.214844 871.628906 1228.683594 867.394531 1231.585938 C 856.886719 1238.800781 854.6875 1251.191406 847.472656 1260.839844 C 845.277344 1263.820312 841.589844 1261.859375 838.691406 1264.996094 C 832.335938 1271.582031 835.082031 1282.640625 840.886719 1289.464844 C 836.964844 1296.367188 833.511719 1303.738281 830.609375 1311.582031 C 809.828125 1368.441406 821.828125 1419.023438 817.59375 1431.652344 C 813.277344 1444.199219 765.90625 1510.234375 757.046875 1507.097656 C 748.105469 1503.960938 700.417969 1383.734375 704.96875 1360.988281 C 708.183594 1344.832031 723.164062 1323.1875 731.710938 1311.972656 C 738.378906 1311.738281 745.515625 1313.382812 750.769531 1314.875 C 753.4375 1315.660156 756.027344 1316.363281 758.691406 1316.992188 C 762.378906 1317.855469 766.222656 1318.480469 769.984375 1318.5625 C 778.769531 1318.71875 789.042969 1317.539062 790.457031 1306.640625 C 790.691406 1304.835938 790.613281 1302.953125 790.21875 1301.148438 C 789.59375 1298.089844 788.496094 1294.71875 786.378906 1292.445312 C 785.671875 1291.660156 782.222656 1289.933594 781.90625 1289.152344 C 781.671875 1288.523438 782.847656 1288.367188 783.242188 1287.816406 C 783.867188 1286.953125 784.339844 1285.855469 784.730469 1284.835938 C 786.378906 1280.679688 785.671875 1276.679688 782.925781 1273.308594 C 778.925781 1268.289062 772.496094 1267.820312 766.769531 1269.152344 C 764.886719 1269.542969 763.085938 1270.25 761.203125 1270.800781 C 760.652344 1270.957031 759.945312 1271.582031 759.476562 1271.191406 C 757.828125 1269.78125 757.4375 1267.976562 755.085938 1266.800781 C 744.890625 1261.703125 736.96875 1269.9375 731.007812 1277.621094 C 730.691406 1278.015625 730.300781 1276.757812 729.910156 1276.445312 C 728.890625 1275.582031 727.792969 1274.878906 726.613281 1274.40625 C 723.242188 1273.074219 719.871094 1273.308594 716.574219 1274.796875 C 710.066406 1277.699219 707.949219 1284.679688 702.773438 1288.992188 C 700.890625 1290.5625 699.714844 1289.230469 697.4375 1289.386719 C 695.320312 1289.542969 693.203125 1290.5625 691.714844 1292.050781 C 689.519531 1294.171875 688.261719 1296.679688 687.480469 1299.660156 C 686.695312 1302.5625 686.066406 1305.542969 685.988281 1308.523438 C 685.675781 1319.109375 693.125 1325.070312 699.714844 1331.5 L 693.359375 1340.992188 C 693.359375 1340.992188 679.714844 1293.542969 647.636719 1258.644531 C 641.441406 1251.898438 635.402344 1246.410156 629.597656 1241.703125 C 644.109375 1233.859375 655.324219 1216.214844 661.597656 1202.410156 C 664.34375 1196.371094 666.851562 1190.410156 667.007812 1183.589844 C 667.246094 1172.136719 661.441406 1161.316406 654.460938 1153.003906 C 646.226562 1143.277344 634.539062 1141.003906 623.246094 1145.628906 C 621.992188 1146.101562 624.5 1143.199219 625.050781 1141.945312 C 626.382812 1138.652344 627.402344 1135.277344 627.402344 1131.671875 C 627.324219 1121.082031 619.792969 1111.90625 611.875 1106.183594 C 599.167969 1097.007812 583.246094 1096.769531 568.894531 1100.613281 C 561.835938 1102.496094 553.992188 1106.339844 546.621094 1105.320312 C 544.582031 1105.082031 541.914062 1100.144531 539.953125 1098.730469 C 534.074219 1094.574219 526.777344 1092.535156 519.640625 1093.242188 C 511.71875 1094.027344 504.898438 1097.476562 498.859375 1102.886719 C 493.367188 1107.90625 489.527344 1113.238281 486.308594 1120.0625 C 483.878906 1125.316406 482.152344 1132.140625 477.839844 1136.140625 C 477.367188 1136.53125 476.820312 1136.847656 476.191406 1137.003906 C 447.488281 1115.90625 418.941406 1092.066406 401.84375 1070.417969 C 402 1070.496094 402.15625 1070.496094 402.3125 1070.574219 C 407.960938 1071.988281 414.863281 1066.578125 417.058594 1061.558594 C 419.097656 1057.007812 417.921875 1053.007812 414.703125 1049.714844 C 414.46875 1049.480469 415.410156 1049.792969 415.800781 1049.714844 C 416.351562 1049.636719 416.820312 1049.480469 417.371094 1049.246094 C 419.253906 1048.539062 420.820312 1047.363281 422.15625 1045.871094 C 425.605469 1042.027344 427.800781 1035.988281 426.15625 1030.8125 C 424.273438 1025.011719 418.703125 1021.402344 413.058594 1020.933594 C 410.390625 1020.695312 407.253906 1021.636719 404.742188 1020.539062 C 403.644531 1020.070312 402.785156 1017.796875 401.765625 1016.933594 C 399.332031 1014.816406 395.566406 1014.265625 392.507812 1014.421875 C 386.390625 1014.65625 382.390625 1017.953125 377.53125 1021.402344 C 376.980469 1021.796875 373.765625 1021.246094 372.589844 1021.796875 C 367.097656 1024.382812 363.960938 1031.441406 363.648438 1037.558594 C 363.414062 1044.617188 366.472656 1050.265625 368.824219 1056.539062 C 370.078125 1059.910156 370.234375 1062.5 373.292969 1065.398438 C 378.234375 1070.027344 385.84375 1069.007812 391.019531 1065.398438 C 396.902344 1074.105469 405.921875 1085.320312 419.804688 1098.183594 C 432.824219 1110.261719 447.878906 1123.984375 463.175781 1137.710938 C 452.976562 1140.925781 444.039062 1148.847656 440.351562 1159.277344 C 430.78125 1186.253906 446.78125 1223.585938 474.46875 1230.957031 C 480.507812 1232.605469 487.015625 1230.722656 492.976562 1229.9375 C 492.976562 1229.9375 535.171875 1208.84375 549.917969 1209 C 566.152344 1217.078125 614.386719 1243.429688 637.757812 1283.113281 C 644.265625 1294.09375 652.265625 1309.386719 660.8125 1327.109375 C 656.894531 1352.519531 653.441406 1377.929688 655.089844 1402.792969 C 656.421875 1423.730469 661.285156 1444.277344 672.265625 1463.964844 C 675.167969 1469.140625 678.617188 1473.921875 682.460938 1478.550781 C 690.617188 1488.355469 700.421875 1497.214844 708.261719 1506.707031 C 713.753906 1513.371094 719.558594 1521.527344 725.046875 1530.546875 C 722.773438 1563.332031 708.578125 1588.898438 695.714844 1608.894531 C 689.363281 1618.855469 683.246094 1627.40625 679.167969 1634.855469 C 679.167969 1634.855469 579.328125 1601.210938 553.523438 1540.980469 C 539.328125 1507.882812 504.425781 1478.394531 471.332031 1462.003906 C 471.566406 1461.296875 471.644531 1460.511719 471.410156 1459.730469 C 471.175781 1458.789062 469.683594 1457.140625 469.761719 1456.355469 C 469.761719 1456.042969 471.957031 1454.003906 472.273438 1453.453125 C 474.859375 1448.59375 475.410156 1443.023438 470.78125 1439.257812 C 465.605469 1435.023438 456.351562 1436.59375 451.644531 1441.0625 C 451.488281 1441.21875 451.878906 1440.75 452.039062 1440.515625 C 452.507812 1439.808594 452.664062 1439.496094 453.058594 1438.710938 C 454 1436.90625 454.78125 1434.867188 454.703125 1432.828125 C 454.46875 1427.574219 448.585938 1423.886719 444.273438 1423.105469 C 441.136719 1422.476562 437.921875 1423.339844 435.175781 1424.984375 C 434 1425.691406 432.351562 1428.042969 431.097656 1428.28125 C 431.097656 1428.28125 428.742188 1424.515625 428.585938 1424.359375 C 426.234375 1421.535156 423.175781 1419.183594 419.410156 1419.808594 C 412.824219 1420.828125 407.566406 1425.378906 404.273438 1431.261719 C 402.785156 1433.925781 401.6875 1438.003906 399.332031 1439.964844 C 398.234375 1440.90625 396.039062 1440.199219 394.707031 1440.59375 C 391.648438 1441.535156 389.214844 1444.671875 387.960938 1447.574219 C 384.589844 1455.257812 387.960938 1467.964844 396.589844 1469.925781 C 399.960938 1470.707031 401.371094 1468.828125 404.273438 1467.964844 C 404.746094 1467.886719 404.824219 1468.828125 405.136719 1469.140625 C 405.765625 1469.765625 406.46875 1470.238281 407.253906 1470.628906 C 409.6875 1471.804688 412.507812 1471.570312 415.019531 1470.628906 C 421.921875 1467.886719 422.46875 1461.296875 425.292969 1455.492188 C 430.3125 1455.964844 436.742188 1457.609375 444.980469 1460.828125 C 478.625 1474.238281 511.566406 1486.707031 526.464844 1515.097656 C 541.367188 1543.566406 537.445312 1537.761719 537.445312 1537.761719 C 537.445312 1537.761719 529.132812 1537.292969 483.722656 1539.410156 C 479.09375 1539.644531 474.859375 1539.960938 470.9375 1540.507812 C 473.527344 1534.703125 472.898438 1527.566406 467.253906 1523.253906 C 463.175781 1520.039062 458 1519.804688 453.214844 1520.902344 C 450 1521.605469 446.703125 1523.332031 443.410156 1523.332031 C 443.097656 1523.332031 443.488281 1522.707031 443.488281 1522.3125 C 443.488281 1521.136719 443.488281 1519.960938 442.941406 1518.941406 C 441.292969 1515.804688 438.703125 1514.234375 435.332031 1513.449219 C 430.863281 1512.351562 426.15625 1514.390625 423.253906 1518.078125 C 421.765625 1520.039062 420.902344 1522.785156 419.253906 1524.585938 C 418.546875 1525.371094 414.941406 1525.683594 413.84375 1526.3125 C 410.785156 1527.882812 407.882812 1530.46875 406.234375 1533.605469 C 403.175781 1539.644531 403.253906 1547.566406 406.546875 1553.527344 C 408.273438 1556.585938 410.707031 1558.703125 412.902344 1561.371094 C 413.449219 1561.996094 413.292969 1565.527344 413.527344 1566.390625 C 414.390625 1569.605469 416.039062 1572.742188 418.546875 1574.9375 C 426.863281 1582.386719 439.175781 1576.269531 441.761719 1565.996094 C 442.390625 1563.488281 442.703125 1560.976562 442.9375 1558.46875 C 447.410156 1556.195312 453.527344 1553.996094 461.996094 1552.429688 C 490.074219 1547.332031 539.015625 1553.761719 539.015625 1553.761719 C 539.015625 1553.761719 565.835938 1622.855469 656.1875 1661.128906 C 656.1875 1661.128906 649.441406 1672.027344 641.835938 1683.871094 C 628.1875 1687.085938 614.621094 1690.617188 601.445312 1695.558594 C 582.699219 1702.617188 563.875 1715.554688 554.699219 1733.046875 C 550.855469 1740.496094 548.582031 1748.730469 548.660156 1757.75 C 514.621094 1780.101562 476.742188 1807.707031 453.605469 1833.273438 C 436.351562 1806.375 417.371094 1775.789062 414 1769.277344 C 411.722656 1764.964844 404.351562 1744.417969 386.3125 1714.929688 C 385.449219 1698.539062 384.746094 1681.597656 381.449219 1665.597656 C 378.46875 1650.933594 373.371094 1637.050781 364.351562 1624.738281 C 352.433594 1608.425781 338.316406 1599.484375 322.941406 1594.542969 C 307.335938 1589.601562 290.316406 1589.054688 272.828125 1588.898438 C 261.691406 1579.957031 249.769531 1570.9375 236.828125 1561.917969 C 98.953125 1465.925781 105.929688 1369.773438 48.128906 1337.855469 C 39.109375 1332.835938 27.972656 1328.441406 15.582031 1324.363281 C 19.894531 1322.484375 23.972656 1320.285156 27.738281 1317.777344 C 35.894531 1312.207031 44.992188 1303.503906 47.894531 1293.074219 C 52.835938 1275.425781 32.285156 1266.09375 25.777344 1254.25 C 22.640625 1248.527344 22.875 1238.332031 20.601562 1231.742188 C 16.523438 1220.214844 9.308594 1208.765625 -0.105469 1202.332031 L -0.105469 1334.636719 C 17.464844 1340.519531 32.523438 1347.894531 42.089844 1356.910156 C 74.011719 1386.871094 92.285156 1427.886719 100.046875 1448.75 C 99.734375 1452.90625 99.5 1457.0625 99.34375 1461.296875 C 84.675781 1458.867188 41.699219 1452.277344 -0.105469 1450.867188 L -0.105469 1467.179688 C 27.109375 1468.199219 60.441406 1471.726562 99.109375 1478.472656 C 99.34375 1487.414062 100.207031 1496.117188 102.011719 1504.195312 C 105.773438 1520.824219 112.519531 1533.921875 121.539062 1545.058594 C 126.480469 1551.253906 132.203125 1556.898438 138.480469 1562.152344 C 118.246094 1565.449219 95.109375 1570.703125 75.816406 1579.25 C 75.816406 1579.171875 75.816406 1579.171875 75.816406 1579.09375 C 76.285156 1573.605469 77.777344 1567.488281 75.972656 1562.152344 C 71.34375 1548.429688 52.835938 1542.46875 41.777344 1549.058594 C 35.972656 1552.585938 31.972656 1558.546875 29.464844 1565.132812 C 28.128906 1568.585938 27.738281 1574.78125 25.464844 1577.527344 C 24.523438 1578.703125 22.484375 1579.644531 21.386719 1580.664062 C 17.304688 1584.503906 13.933594 1589.683594 12.050781 1595.171875 C 9.933594 1601.289062 12.601562 1606.386719 17.933594 1608.894531 C 25.855469 1612.582031 34.640625 1607.796875 42.71875 1609.601562 C 45.855469 1610.308594 44.992188 1613.054688 46.71875 1615.5625 C 48.207031 1617.679688 50.558594 1618.542969 52.914062 1619.089844 C 56.601562 1619.875 60.597656 1619.25 64.050781 1617.523438 C 68.519531 1615.328125 71.421875 1610.308594 72.597656 1605.210938 C 73.304688 1601.996094 73.539062 1598.859375 75.03125 1596.191406 C 90.011719 1591.484375 115.65625 1584.113281 136.519531 1581.367188 L 139.734375 1622.621094 C 130.324219 1615.328125 116.441406 1609.601562 108.363281 1622.621094 C 106.714844 1625.367188 105.382812 1628.425781 104.832031 1631.640625 C 104.441406 1633.757812 104.992188 1636.1875 104.050781 1637.992188 C 103.96875 1638.070312 100.992188 1637.914062 100.992188 1637.914062 C 98.011719 1637.992188 94.953125 1638.226562 92.128906 1639.011719 C 84.128906 1641.207031 74.875 1653.441406 79.421875 1663.089844 C 81.382812 1667.246094 86.636719 1668.65625 90.402344 1668.972656 C 99.5 1669.753906 108.753906 1667.011719 117.617188 1665.519531 C 129.539062 1663.558594 141.617188 1664.65625 153.539062 1663.714844 C 159.027344 1663.246094 164.597656 1662.070312 169.695312 1659.796875 C 177.066406 1656.5 184.28125 1649.207031 183.183594 1639.640625 C 182.792969 1635.796875 180.832031 1632.503906 179.8125 1628.816406 C 179.578125 1627.953125 181.535156 1624.269531 181.457031 1622.777344 C 181.222656 1618.074219 177.617188 1612.660156 174.558594 1609.679688 C 168.28125 1603.484375 158.085938 1603.796875 150.480469 1608.425781 L 149.617188 1582.9375 L 163.890625 1580.898438 C 167.578125 1583.566406 171.417969 1586.230469 175.261719 1588.585938 C 180.519531 1591.722656 185.929688 1594.386719 191.8125 1596.113281 C 199.417969 1598.386719 207.496094 1599.957031 215.8125 1601.132812 C 225.847656 1602.542969 236.046875 1603.40625 245.769531 1603.957031 C 260.28125 1614.074219 276.59375 1626.933594 292.515625 1642.777344 C 318.238281 1668.421875 346.628906 1713.753906 371.804688 1758.140625 C 375.257812 1778.21875 381.296875 1797.746094 390.707031 1815 C 394.707031 1822.375 399.335938 1829.273438 404.746094 1835.628906 L 356.355469 1797.589844 C 356.277344 1795.867188 356.433594 1794.453125 356.746094 1793.589844 C 364.039062 1776.179688 335.570312 1760.808594 328.746094 1750.144531 C 325.925781 1745.828125 327.101562 1740.574219 325.769531 1735.632812 C 323.964844 1728.890625 318.945312 1723.476562 313.375 1720.183594 C 304.277344 1714.773438 291.808594 1716.496094 282.867188 1721.359375 C 280.042969 1722.851562 273.0625 1729.832031 269.769531 1729.125 C 268.042969 1728.730469 268.671875 1725.4375 267.574219 1723.949219 C 265.222656 1720.96875 261.378906 1719.164062 258.164062 1717.753906 C 240.359375 1710.144531 216.046875 1717.753906 210.085938 1739.320312 C 202.320312 1767.082031 227.417969 1778.0625 246.949219 1783.628906 C 255.105469 1785.984375 263.339844 1788.648438 271.886719 1788.492188 C 284.121094 1788.257812 295.808594 1783.160156 308.121094 1784.414062 C 310.789062 1784.652344 313.453125 1785.199219 316.199219 1785.90625 L 420.351562 1870.449219 C 402.707031 1890.054688 385.6875 1908.171875 369.609375 1922.679688 C 331.648438 1956.796875 276.515625 1965.894531 230.710938 1988.558594 C 194.714844 1983.695312 166.949219 1993.8125 144.675781 2012.480469 C 102.714844 2047.851562 80.914062 2115.6875 61.460938 2174.585938 C 56.363281 2189.957031 52.679688 2206.351562 47.503906 2221.878906 C 45.386719 2228.308594 42.953125 2234.582031 39.972656 2240.542969 C 34.25 2252.152344 25.308594 2263.128906 20.523438 2275.363281 C 18.09375 2281.480469 16.679688 2287.992188 16.835938 2294.972656 C 16.992188 2302.03125 19.03125 2310.96875 22.328125 2321.085938 C 15.109375 2332.851562 7.582031 2345.085938 0.445312 2357.398438 Z M 1458.667969 1461.296875 C 1455.921875 1478 1451.21875 1493.765625 1442.355469 1507.804688 C 1431.453125 1525.058594 1415.84375 1535.015625 1398.277344 1541.996094 C 1382.828125 1548.191406 1365.808594 1552.035156 1348.789062 1555.957031 C 1356.160156 1544.429688 1363.535156 1534.234375 1370.828125 1526 C 1408.550781 1483.335938 1451.53125 1460.984375 1451.53125 1460.984375 Z M 1225.734375 1654.695312 C 1224.558594 1659.089844 1223.460938 1663.558594 1222.519531 1668.027344 C 1217.5 1692.261719 1216.324219 1718.457031 1215.382812 1743.632812 C 1204.871094 1758.375 1193.5 1762.609375 1152.640625 1755.789062 C 1106.523438 1748.101562 1123.777344 1710.851562 1138.128906 1682.695312 C 1152.558594 1654.617188 1208.246094 1654.617188 1208.246094 1654.617188 L 1207.695312 1649.992188 C 1212.324219 1650.226562 1216.792969 1650.933594 1221.265625 1652.578125 C 1222.753906 1653.128906 1224.246094 1653.910156 1225.734375 1654.695312 Z M 1543.761719 1270.796875 C 1526.195312 1299.582031 1515.371094 1341.226562 1478.039062 1389.066406 C 1478.824219 1373.144531 1480.3125 1357.460938 1483.921875 1342.714844 C 1489.332031 1320.679688 1499.6875 1300.757812 1520.46875 1285.386719 C 1525.488281 1281.699219 1533.722656 1276.601562 1543.761719 1270.796875 Z M 1257.339844 1628.109375 C 1261.96875 1620.1875 1267.695312 1612.972656 1274.753906 1606.542969 C 1280.085938 1601.757812 1285.890625 1597.679688 1292.007812 1594.230469 C 1277.261719 1621.835938 1272.007812 1640.738281 1270.28125 1644.734375 C 1269.339844 1646.773438 1266.988281 1651.558594 1263.695312 1657.910156 C 1265.734375 1647.636719 1262.753906 1634.460938 1257.65625 1628.421875 C 1257.5 1628.34375 1257.417969 1628.265625 1257.339844 1628.109375 Z M 1660.152344 1995.773438 C 1647.835938 1999.695312 1635.367188 2003.617188 1623.210938 2005.578125 C 1612.074219 2007.300781 1601.328125 2007.300781 1591.449219 2003.300781 C 1587.839844 2001.890625 1584.78125 1999.773438 1581.878906 1997.5 C 1573.644531 1990.988281 1566.898438 1982.519531 1558.117188 1976.480469 C 1552.46875 1972.558594 1546.585938 1969.34375 1540.703125 1966.519531 C 1529.488281 1961.109375 1517.960938 1957.03125 1506.902344 1951.382812 C 1517.722656 1953.5 1526.742188 1955.777344 1533.253906 1958.128906 C 1579.132812 1974.675781 1561.566406 1966.675781 1613.722656 1985.421875 C 1626.742188 1990.046875 1642.660156 1993.578125 1660.152344 1995.773438 Z M 574.148438 1741.4375 C 575.011719 1739.867188 576.03125 1738.300781 577.128906 1736.886719 C 584.816406 1726.691406 596.972656 1719.242188 608.8125 1714.535156 C 614.460938 1712.261719 620.1875 1710.300781 625.910156 1708.496094 C 625.050781 1709.75 624.265625 1710.769531 623.714844 1711.476562 C 623.011719 1712.339844 602.070312 1724.105469 574.148438 1741.4375 Z M 669.597656 1344.519531 C 693.359375 1396.359375 718.457031 1461.765625 724.417969 1503.253906 C 722.613281 1500.980469 720.890625 1498.785156 719.164062 1496.824219 C 711.085938 1487.335938 701.125 1478.707031 692.734375 1468.984375 C 689.359375 1465.140625 686.300781 1461.0625 683.792969 1456.667969 C 673.597656 1438.945312 668.890625 1420.4375 667.324219 1401.457031 C 665.832031 1382.871094 667.246094 1363.734375 669.597656 1344.519531 Z M 1461.019531 1442.394531 C 1460.941406 1442.789062 1460.941406 1443.179688 1460.941406 1443.570312 C 1459.765625 1443.652344 1459.058594 1443.652344 1459.058594 1443.652344 C 1459.6875 1443.257812 1460.394531 1442.867188 1461.019531 1442.394531 Z M 749.90625 1792.101562 C 725.671875 1817.980469 701.675781 1844.332031 675.558594 1867.230469 C 653.910156 1886.210938 630.851562 1902.835938 604.816406 1914.757812 C 582.777344 1924.875 560.503906 1930.992188 538.230469 1935.148438 C 581.757812 1876.566406 605.914062 1838.84375 680.261719 1818.214844 C 685.125 1816.882812 689.519531 1815.234375 693.4375 1813.351562 C 708.890625 1808.570312 728.105469 1800.804688 749.90625 1792.101562 Z M 218.320312 1586.074219 C 218.238281 1586.074219 218.082031 1586.074219 218.003906 1586.074219 C 210.320312 1585.132812 202.789062 1583.796875 195.808594 1581.839844 C 192.125 1580.820312 188.671875 1579.40625 185.300781 1577.601562 L 198.320312 1575.722656 C 198.242188 1575.722656 206.082031 1579.09375 218.320312 1586.074219 Z M 366.863281 1684.96875 C 349.136719 1660.96875 325.375 1633.601562 293.453125 1605.445312 C 302.238281 1606.230469 310.707031 1607.640625 318.785156 1610.386719 C 331.019531 1614.464844 342.15625 1621.835938 351.492188 1635.089844 C 358.707031 1645.363281 362.546875 1656.890625 364.824219 1668.96875 C 365.6875 1674.222656 366.3125 1679.558594 366.863281 1684.96875 Z M 736.105469 1645.753906 C 735.554688 1646.304688 735.007812 1646.773438 734.457031 1647.246094 C 732.417969 1649.050781 730.300781 1650.773438 728.183594 1652.34375 C 729.75 1649.128906 731.242188 1645.914062 732.652344 1642.617188 C 739.789062 1626.542969 745.671875 1610.226562 750.847656 1594.699219 C 752.417969 1605.523438 752.183594 1616.03125 749.203125 1625.523438 C 746.691406 1633.519531 741.90625 1640.1875 736.105469 1645.753906 Z M 157.300781 1559.171875 C 147.417969 1552.191406 138.636719 1544.976562 131.417969 1536.273438 C 123.417969 1526.625 117.300781 1515.332031 113.773438 1500.902344 C 112.203125 1494.3125 111.261719 1487.335938 110.871094 1480.117188 C 111.105469 1480.199219 111.339844 1480.199219 111.5 1480.277344 C 111.5 1480.277344 156.125 1539.015625 188.359375 1556.742188 C 188.359375 1556.664062 175.574219 1557.054688 157.300781 1559.171875 Z M 1237.421875 1706.300781 C 1238.285156 1694.773438 1239.539062 1683.320312 1241.734375 1672.265625 C 1241.96875 1670.851562 1242.28125 1669.441406 1242.597656 1668.105469 C 1245.421875 1670.460938 1248.871094 1672.421875 1252.320312 1671.636719 C 1254.441406 1671.164062 1256.242188 1670.226562 1257.8125 1668.96875 C 1251.695312 1680.34375 1244.320312 1693.910156 1237.421875 1706.300781 Z M 115.027344 2581.460938 C 104.675781 2535.113281 94.636719 2495.742188 100.363281 2464.058594 C 107.105469 2473.3125 115.261719 2482.410156 121.929688 2492.371094 C 126.320312 2498.957031 130.085938 2505.859375 132.046875 2513.546875 C 133.851562 2520.761719 133.535156 2527.503906 132.125 2533.9375 C 128.753906 2550.171875 119.65625 2565.148438 115.027344 2581.460938 Z M 33.148438 2305.007812 C 32.207031 2301.085938 31.738281 2297.558594 31.578125 2294.34375 C 31.34375 2287.753906 33.304688 2281.792969 36.050781 2276.148438 C 40.914062 2266.03125 47.972656 2256.699219 52.675781 2246.894531 C 55.816406 2240.308594 58.402344 2233.40625 60.753906 2226.347656 C 65.851562 2210.742188 69.382812 2194.269531 74.324219 2178.820312 C 92.519531 2121.882812 112.203125 2056.003906 152.28125 2021.574219 C 168.671875 2007.539062 188.4375 1998.910156 212.984375 1998.441406 C 207.652344 2001.8125 202.554688 2005.417969 197.769531 2009.417969 C 175.96875 2027.378906 136.515625 2042.203125 122.085938 2068.394531 C 91.1875 2124.707031 104.046875 2197.878906 67.734375 2253.011719 C 56.832031 2269.640625 44.992188 2287.050781 33.148438 2305.007812 Z M 33.148438 2305.007812 "/><path style=" stroke:none;fill-rule:evenodd;fill:#aa381e;fill-opacity:1;" d="M 375.882812 347.328125 C 391.332031 358.148438 451.332031 392.5 541.445312 348.03125 C 646.695312 296.035156 619.636719 242.941406 657.910156 238.628906 C 657.910156 238.628906 616.734375 232.902344 590.382812 206.082031 C 586.382812 215.097656 577.285156 232.746094 563.167969 246.390625 C 549.289062 259.800781 530.699219 269.605469 507.40625 265.214844 C 467.566406 257.761719 454.230469 237.058594 454.859375 219.335938 C 455.488281 202.472656 468.742188 187.257812 486.386719 184.75 C 497.757812 183.101562 511.171875 186.707031 523.875 199.023438 C 525.992188 201.0625 525.992188 204.355469 523.953125 206.394531 C 521.914062 208.433594 518.621094 208.511719 516.503906 206.472656 C 506.699219 196.90625 496.582031 193.765625 487.800781 195.023438 C 475.25 196.824219 465.683594 207.648438 465.210938 219.648438 C 464.742188 234 477.054688 248.902344 509.210938 254.863281 C 528.738281 258.546875 544.191406 250.078125 555.796875 238.863281 C 573.992188 221.214844 582.933594 196.511719 582.933594 196.511719 C 583.402344 195.179688 584.421875 194.160156 585.601562 193.53125 C 578.226562 165.21875 547.5625 85.304688 438.546875 111.339844 C 438.546875 111.339844 373.765625 14.171875 261.53125 71.03125 C 268.433594 77.226562 278.550781 87.734375 285.609375 101.144531 C 293.765625 116.4375 298 135.339844 289.921875 155.964844 C 277.925781 186.628906 247.886719 202.160156 219.808594 201.765625 C 200.75 201.53125 182.710938 194.003906 171.496094 179.257812 C 153.457031 155.496094 164.75 127.339844 183.652344 115.65625 C 196.75 107.578125 213.378906 107.183594 226.789062 120.832031 C 228.828125 122.871094 228.828125 126.164062 226.710938 128.203125 C 224.671875 130.242188 221.296875 130.164062 219.339844 128.125 C 209.925781 118.554688 198.320312 118.871094 189.144531 124.515625 C 174.710938 133.378906 166.085938 154.789062 179.808594 172.828125 C 189.0625 184.984375 204.121094 191.023438 219.886719 191.179688 C 243.964844 191.492188 269.847656 178.316406 280.121094 152.042969 C 288.667969 130.242188 280.511719 110.714844 270.550781 96.597656 C 263.570312 86.792969 255.648438 79.5 251.179688 75.8125 C 241.609375 70.011719 119.96875 0.132812 75.027344 142.320312 C 75.027344 142.320312 39.578125 131.027344 0.363281 132.046875 L 0.363281 266.390625 C 1.226562 265.527344 2.011719 264.742188 2.953125 263.960938 C 12.207031 256.273438 25.855469 253.761719 37.460938 255.566406 C 56.597656 258.546875 74.085938 275.878906 77.851562 294.859375 C 82.164062 316.582031 71.34375 343.011719 50.871094 352.738281 C 61.539062 358.777344 79.265625 366.855469 97.222656 366.933594 C 95.96875 364.816406 94.871094 362.699219 93.929688 360.503906 C 86.007812 340.425781 89.695312 309.523438 107.261719 295.171875 C 119.105469 285.527344 136.910156 283.015625 151.574219 285.289062 C 157.144531 286.152344 162.789062 287.800781 167.652344 290.859375 C 171.964844 293.527344 175.417969 297.210938 177.847656 301.683594 C 183.101562 311.484375 181.144531 323.875 174.789062 332.269531 C 168.125 341.128906 157.066406 345.679688 145.144531 339.484375 C 142.085938 337.914062 139.496094 335.640625 137.222656 333.132812 C 134.320312 329.914062 132.910156 326.542969 131.8125 322.386719 C 131.027344 319.5625 132.753906 316.738281 135.496094 316.035156 C 138.320312 315.25 141.144531 316.976562 141.929688 319.71875 C 142.554688 322.152344 143.261719 324.191406 144.988281 326.074219 C 146.476562 327.71875 148.046875 329.132812 150.007812 330.152344 C 156.671875 333.601562 162.789062 330.855469 166.476562 325.914062 C 170.476562 320.582031 172.046875 312.742188 168.671875 306.542969 C 167.183594 303.722656 164.90625 301.367188 162.164062 299.644531 C 158.554688 297.367188 154.242188 296.191406 150.007812 295.566406 C 138.085938 293.761719 123.574219 295.40625 113.929688 303.25 C 99.65625 314.9375 97.300781 340.191406 103.734375 356.582031 C 104.988281 359.796875 106.949219 362.777344 108.910156 365.679688 C 108.988281 365.679688 109.066406 365.601562 109.144531 365.601562 C 109.144531 365.601562 109.222656 365.914062 109.378906 366.460938 C 109.617188 366.777344 109.773438 367.089844 110.007812 367.402344 C 110.476562 368.109375 110.714844 368.894531 110.792969 369.679688 C 116.359375 380.265625 139.183594 407.085938 226.316406 401.519531 C 308.667969 396.265625 350.078125 365.601562 365.136719 351.324219 C 362.078125 348.660156 359.410156 345.207031 357.214844 342.070312 C 343.253906 322.464844 342.785156 292.585938 364.664062 277.996094 C 368.664062 275.332031 373.214844 273.527344 377.839844 272.351562 C 383.253906 271.015625 388.820312 270.859375 394.3125 272.117188 C 400.429688 273.527344 406.78125 276.351562 411.25 280.898438 C 413.683594 283.332031 415.957031 286.625 417.132812 289.761719 C 418.390625 293.054688 418.78125 296.820312 418.546875 300.269531 C 417.132812 319.71875 394.9375 327.328125 380.820312 315.40625 C 378.625 313.523438 378.3125 310.230469 380.195312 308.035156 C 382.078125 305.839844 385.371094 305.523438 387.566406 307.40625 C 395.253906 313.839844 407.332031 309.996094 408.191406 299.484375 C 408.351562 297.527344 408.191406 295.328125 407.488281 293.449219 C 406.78125 291.566406 405.371094 289.605469 403.878906 288.191406 C 400.742188 285.054688 396.273438 283.171875 392.035156 282.230469 C 388.195312 281.371094 384.273438 281.449219 380.429688 282.390625 C 376.898438 283.25 373.449219 284.585938 370.46875 286.625 C 353.683594 297.761719 355.097656 320.816406 365.761719 335.875 C 367.957031 339.011719 370.703125 342.777344 373.996094 344.816406 C 374.863281 345.835938 375.410156 346.542969 375.882812 347.328125 Z M 0.445312 286.9375 L 0.445312 303.5625 C 1.226562 305.210938 2.246094 306.625 3.738281 307.878906 C 6.246094 309.917969 10.167969 310.859375 13.933594 310.859375 C 17.382812 310.78125 20.835938 309.917969 22.796875 307.40625 C 25.777344 303.5625 25.382812 298.152344 23.738281 293.839844 C 22.71875 291.171875 24.050781 288.113281 26.71875 287.09375 C 29.382812 286.074219 32.441406 287.410156 33.460938 290.074219 C 36.363281 297.683594 36.285156 307.015625 31.03125 313.761719 C 27.972656 317.679688 23.1875 320.113281 17.855469 320.976562 C 11.894531 321.917969 5.382812 320.816406 0.445312 318.230469 L 0.445312 348.109375 C 13.933594 348.738281 27.5 348.03125 40.441406 346.699219 C 41.070312 345.835938 41.933594 345.207031 43.03125 344.816406 C 61.695312 338.777344 71.34375 315.5625 67.65625 297.054688 C 64.675781 282.074219 51.03125 268.351562 35.894531 266 C 27.109375 264.664062 16.679688 266.234375 9.699219 272.035156 C 5.777344 275.410156 2.324219 280.976562 0.445312 286.9375 Z M 0.445312 286.9375 "/><path style=" stroke:none;fill-rule:evenodd;fill:#aa381e;fill-opacity:1;" d="M 3038.691406 2399.199219 C 3030.535156 2397.003906 3018.457031 2396.847656 3004.890625 2406.804688 C 2980.339844 2425 2985.988281 2450.882812 2985.988281 2450.882812 C 2985.988281 2450.882812 2969.046875 2468.292969 2953.125 2475.195312 C 2937.285156 2482.175781 2916.96875 2497.78125 2912.1875 2500.605469 C 2907.402344 2503.429688 2946.617188 2495.976562 2961.753906 2523.582031 C 2976.890625 2551.191406 2980.574219 2564.914062 3016.105469 2587.894531 C 3051.632812 2610.792969 3171.394531 2637.144531 3208.488281 2582.402344 C 3208.488281 2582.402344 3248.332031 2613.148438 3309.191406 2611.96875 C 3370.050781 2610.714844 3357.582031 2583.5 3392.089844 2569.226562 C 3426.601562 2555.03125 3447.933594 2590.714844 3472.949219 2540.996094 C 3472.949219 2540.996094 3466.363281 2553.230469 3451.070312 2536.757812 C 3435.699219 2520.289062 3423.148438 2491.429688 3388.011719 2499.585938 C 3388.011719 2499.585938 3402.601562 2432.921875 3346.835938 2414.023438 C 3290.996094 2395.199219 3263.234375 2424.140625 3263.234375 2424.140625 C 3263.234375 2424.140625 3260.332031 2359.125 3191.628906 2342.183594 C 3122.84375 2325.242188 3065.671875 2354.183594 3049.515625 2404.0625 C 3049.515625 2404.0625 3049.28125 2403.90625 3048.808594 2403.589844 C 3047.003906 2412.609375 3042.457031 2441.472656 3052.808594 2473.46875 C 3058.691406 2491.820312 3078.691406 2504.527344 3099.394531 2507.425781 C 3119.785156 2510.25 3141.277344 2503.269531 3150.609375 2481.15625 C 3156.097656 2468.214844 3156.257812 2458.410156 3153.355469 2451.117188 C 3146.6875 2434.175781 3125.042969 2430.648438 3125.042969 2430.648438 C 3122.140625 2430.097656 3120.179688 2427.355469 3120.726562 2424.453125 C 3121.199219 2421.550781 3124.023438 2419.589844 3126.921875 2420.140625 C 3126.921875 2420.140625 3154.765625 2425.238281 3163.394531 2447.273438 C 3167.078125 2456.605469 3167.550781 2469 3160.492188 2485.46875 C 3148.960938 2512.527344 3122.925781 2521.621094 3097.90625 2518.171875 C 3073.121094 2514.800781 3049.671875 2498.878906 3042.535156 2476.917969 C 3030.457031 2439.355469 3037.121094 2405.945312 3038.691406 2399.199219 Z M 3038.691406 2399.199219 "/><path style=" stroke:none;fill-rule:evenodd;fill:#aa381e;fill-opacity:1;" d="M 2277.070312 2564.679688 C 2277.070312 2564.679688 2256.523438 2563.738281 2237.152344 2536.210938 C 2216.917969 2507.585938 2198.878906 2478.097656 2157.546875 2481.625 C 2164.289062 2469.234375 2174.800781 2440.921875 2147.898438 2417.003906 C 2119.507812 2391.75 2083.742188 2404.453125 2071.273438 2410.101562 C 2070.253906 2402.808594 2067.429688 2388.535156 2060.527344 2373.945312 C 2050.492188 2352.769531 2031.902344 2330.96875 1997.785156 2328.457031 C 1932.847656 2323.597656 1905.710938 2365.242188 1900.691406 2390.652344 C 1886.652344 2389.394531 1832.222656 2388.140625 1810.339844 2439.355469 C 1795.675781 2432.6875 1736.226562 2410.179688 1689.167969 2455.507812 C 1668.152344 2475.742188 1657.25 2490.800781 1647.757812 2501.230469 C 1634.191406 2516.054688 1623.289062 2520.605469 1586.507812 2516.996094 C 1585.015625 2516.839844 1583.605469 2517.703125 1582.976562 2519.113281 C 1582.429688 2520.523438 1582.898438 2522.09375 1584.074219 2523.035156 C 1584.074219 2523.035156 1617.957031 2549.308594 1648.621094 2569.621094 C 1675.601562 2587.421875 1713.089844 2585.226562 1723.519531 2584.207031 C 1728.304688 2596.441406 1751.519531 2647.417969 1811.046875 2655.417969 C 1867.125 2662.949219 1890.964844 2647.027344 1897.554688 2641.222656 C 1906.652344 2646.085938 1941.160156 2662.710938 1977.316406 2657.066406 C 2012.6875 2651.496094 2038.882812 2631.183594 2046.253906 2624.910156 C 2056.214844 2631.8125 2097.234375 2657.144531 2137.78125 2641.300781 C 2165.464844 2630.480469 2179.113281 2612.046875 2191.035156 2597.773438 C 2198.25 2589.148438 2204.601562 2582.089844 2213.855469 2580.128906 C 2228.601562 2576.992188 2244.128906 2579.660156 2256.679688 2579.1875 C 2266.246094 2578.875 2274.246094 2576.679688 2279.5 2570.246094 C 2280.285156 2569.226562 2280.519531 2567.894531 2279.972656 2566.71875 C 2279.503906 2565.542969 2278.324219 2564.757812 2277.070312 2564.679688 Z M 1903.042969 2397.710938 C 1903.90625 2397.789062 1904.847656 2397.628906 1905.554688 2397.082031 C 1906.261719 2396.53125 1906.730469 2395.75 1906.886719 2394.808594 C 1909.867188 2371.90625 1934.808594 2330.574219 1997.238281 2335.203125 C 2028.296875 2337.476562 2045.15625 2357.476562 2054.332031 2376.847656 C 2063.667969 2396.53125 2065.078125 2415.589844 2065.078125 2415.589844 C 2065.15625 2416.765625 2065.863281 2417.785156 2066.882812 2418.335938 C 2067.902344 2418.882812 2069.15625 2418.882812 2070.175781 2418.257812 C 2070.175781 2418.257812 2111.820312 2394.101562 2143.351562 2422.101562 C 2174.25 2449.628906 2148.132812 2483.898438 2148.132812 2483.898438 C 2147.269531 2484.996094 2147.191406 2486.488281 2147.898438 2487.742188 C 2148.605469 2488.917969 2150.015625 2489.546875 2151.347656 2489.3125 C 2194.640625 2482.097656 2211.582031 2512.132812 2231.503906 2540.289062 C 2245.542969 2560.207031 2260.367188 2567.425781 2269.070312 2570.089844 C 2265.542969 2571.738281 2261.226562 2572.285156 2256.523438 2572.441406 C 2243.582031 2572.914062 2227.582031 2570.324219 2212.523438 2573.542969 C 2201.859375 2575.816406 2194.171875 2583.578125 2185.859375 2593.460938 C 2174.484375 2607.027344 2161.703125 2624.675781 2135.351562 2635.027344 C 2091.980469 2652.046875 2048.136719 2618.007812 2048.136719 2618.007812 C 2046.804688 2616.988281 2044.921875 2617.066406 2043.746094 2618.246094 C 2043.746094 2618.246094 2016.136719 2644.28125 1976.296875 2650.476562 C 1936.535156 2656.671875 1898.730469 2634.242188 1898.730469 2634.242188 C 1897.632812 2633.539062 1896.144531 2633.617188 1895.125 2634.320312 C 1890.886719 2627.105469 1884.066406 2611.65625 1883.828125 2586.636719 C 1883.59375 2560.992188 1904.300781 2547.738281 1923.199219 2548.132812 C 1935.4375 2548.367188 1946.964844 2554.40625 1951.121094 2566.875 C 1954.179688 2576.207031 1953.789062 2583.109375 1951.433594 2588.128906 C 1946.023438 2599.734375 1931.042969 2601.539062 1931.042969 2601.539062 C 1928.769531 2601.851562 1927.042969 2603.972656 1927.355469 2606.246094 C 1927.671875 2608.519531 1929.789062 2610.246094 1932.140625 2609.929688 C 1932.140625 2609.929688 1951.828125 2607.265625 1959.121094 2591.734375 C 1962.179688 2585.148438 1963.199219 2576.285156 1959.199219 2564.207031 C 1953.867188 2548.132812 1939.199219 2539.976562 1923.4375 2539.660156 C 1900.378906 2539.191406 1875.046875 2555.425781 1875.4375 2586.71875 C 1875.75 2614.636719 1883.59375 2631.734375 1888.535156 2639.65625 C 1878.808594 2645.695312 1856.066406 2654.710938 1812.066406 2648.832031 C 1748.617188 2640.28125 1729.167969 2579.660156 1729.167969 2579.660156 C 1728.621094 2578.089844 1727.050781 2577.070312 1725.480469 2577.304688 C 1725.480469 2577.304688 1682.191406 2583.660156 1652.542969 2564.050781 C 1631.839844 2550.328125 1609.566406 2533.9375 1597.488281 2524.761719 C 1628.703125 2526.484375 1639.523438 2520.523438 1652.855469 2505.9375 C 1662.269531 2495.585938 1673.011719 2480.605469 1693.953125 2460.527344 C 1744.695312 2411.667969 1810.65625 2447.117188 1810.65625 2447.117188 C 1811.519531 2447.589844 1812.539062 2447.667969 1813.480469 2447.273438 C 1813.792969 2447.117188 1814.183594 2446.960938 1814.421875 2446.726562 C 1818.105469 2450.019531 1823.125 2455.039062 1827.597656 2461.390625 C 1835.675781 2472.839844 1842.261719 2488.605469 1835.359375 2506.25 C 1821.558594 2541.464844 1786.8125 2554.089844 1763.363281 2533.230469 C 1754.65625 2525.464844 1752.773438 2515.742188 1755.519531 2507.503906 C 1759.597656 2495.191406 1773.636719 2486.488281 1788.929688 2493.546875 C 1791.046875 2494.488281 1793.558594 2493.546875 1794.578125 2491.429688 C 1795.519531 2489.3125 1794.578125 2486.800781 1792.460938 2485.78125 C 1771.753906 2476.292969 1752.855469 2488.214844 1747.441406 2504.839844 C 1743.835938 2515.898438 1746.03125 2529.152344 1757.714844 2539.582031 C 1785.402344 2564.207031 1826.96875 2550.875 1843.28125 2509.386719 C 1849.792969 2492.683594 1846.339844 2477.390625 1839.753906 2465 C 1833.242188 2452.765625 1823.675781 2443.511719 1818.265625 2438.882812 C 1837.085938 2399.90625 1877.242188 2396.6875 1894.730469 2397.238281 C 1894.808594 2422.882812 1902.964844 2440.058594 1913.867188 2451.664062 C 1931.59375 2470.644531 1956.847656 2474.722656 1967.984375 2475.585938 C 1979.75 2476.449219 1992.6875 2470.644531 2000.84375 2461.863281 C 2006.570312 2455.664062 2009.863281 2448.136719 2009.160156 2440.449219 C 2007.902344 2426.335938 1999.121094 2417.941406 1990.492188 2413.238281 C 1982.179688 2408.609375 1974.257812 2407.511719 1974.257812 2407.511719 C 1971.984375 2407.199219 1969.789062 2408.765625 1969.472656 2411.121094 C 1969.160156 2413.394531 1970.730469 2415.589844 1973.082031 2415.980469 C 1973.082031 2415.980469 1979.667969 2416.921875 1986.492188 2420.765625 C 1993.003906 2424.375 1999.824219 2430.570312 2000.765625 2441.3125 C 2001.238281 2446.726562 1998.648438 2451.902344 1994.648438 2456.214844 C 1988.21875 2463.195312 1978.023438 2467.898438 1968.691406 2467.195312 C 1958.730469 2466.410156 1935.984375 2462.960938 1920.140625 2445.941406 C 1910.261719 2435.355469 1903.28125 2420.140625 1903.042969 2397.710938 Z M 1903.042969 2397.710938 "/><path style=" stroke:none;fill-rule:evenodd;fill:#feb100;fill-opacity:1;" d="M 2499.886719 2700.121094 C 2499.886719 2709.691406 2507.652344 2717.453125 2517.21875 2717.453125 L 2823.328125 2717.453125 C 2832.894531 2717.453125 2840.738281 2709.691406 2840.738281 2700.121094 C 2840.738281 2690.554688 2832.972656 2682.710938 2823.328125 2682.710938 L 2517.21875 2682.710938 C 2507.652344 2682.710938 2499.886719 2690.554688 2499.886719 2700.121094 Z M 2499.886719 2700.121094 "/><path style=" stroke:none;fill-rule:evenodd;fill:#feb100;fill-opacity:1;" d="M 2451.574219 2750.628906 C 2451.574219 2760.195312 2459.339844 2767.960938 2468.90625 2767.960938 L 2775.015625 2767.960938 C 2784.582031 2767.960938 2792.347656 2760.195312 2792.347656 2750.628906 C 2792.347656 2741.058594 2784.582031 2733.296875 2775.015625 2733.296875 L 2468.90625 2733.296875 C 2459.339844 2733.296875 2451.574219 2741.058594 2451.574219 2750.628906 Z M 2451.574219 2750.628906 "/><path style=" stroke:none;fill-rule:evenodd;fill:#feb100;fill-opacity:1;" d="M 2527.023438 2737.6875 L 2749.054688 2737.6875 C 2737.210938 2737.6875 2727.644531 2732.121094 2727.644531 2725.296875 C 2727.644531 2718.472656 2737.210938 2712.90625 2749.054688 2712.90625 L 2527.023438 2712.90625 C 2538.867188 2712.90625 2548.355469 2718.472656 2548.355469 2725.296875 C 2548.433594 2732.199219 2538.867188 2737.6875 2527.023438 2737.6875 Z M 2527.023438 2737.6875 "/><path style=" stroke:none;fill-rule:evenodd;fill:#feb100;fill-opacity:1;" d="M 2706.234375 2824.035156 C 2706.234375 2835.09375 2715.171875 2844.113281 2726.308594 2844.113281 L 2814.070312 2844.113281 C 2825.128906 2844.113281 2834.148438 2835.09375 2834.148438 2824.035156 C 2834.148438 2812.976562 2825.207031 2803.957031 2814.070312 2803.957031 L 2726.308594 2803.957031 C 2715.171875 2804.035156 2706.234375 2812.976562 2706.234375 2824.035156 Z M 2706.234375 2824.035156 "/><path style=" stroke:none;fill-rule:evenodd;fill:#feb100;fill-opacity:1;" d="M 2596.980469 2824.035156 C 2596.980469 2835.09375 2605.921875 2844.113281 2617.058594 2844.113281 L 2650.234375 2844.113281 C 2661.292969 2844.113281 2670.3125 2835.09375 2670.3125 2824.035156 C 2670.3125 2812.976562 2661.371094 2803.957031 2650.234375 2803.957031 L 2617.058594 2803.957031 C 2606 2804.035156 2596.980469 2812.976562 2596.980469 2824.035156 Z M 2596.980469 2824.035156 "/><path style=" stroke:none;fill-rule:evenodd;fill:#feb100;fill-opacity:1;" d="M 2761.054688 2792.195312 C 2761.054688 2803.253906 2770.074219 2812.191406 2781.132812 2812.191406 L 2940.261719 2812.191406 C 2951.320312 2812.191406 2960.261719 2803.253906 2960.261719 2792.195312 C 2960.261719 2781.136719 2951.320312 2772.117188 2940.261719 2772.117188 L 2781.132812 2772.117188 C 2770.074219 2772.117188 2761.054688 2781.136719 2761.054688 2792.195312 Z M 2761.054688 2792.195312 "/><path style=" stroke:none;fill-rule:evenodd;fill:#feb100;fill-opacity:1;" d="M 71.5 1080.144531 C 71.5 1087.671875 77.617188 1093.710938 85.066406 1093.710938 L 249.53125 1093.710938 C 257.0625 1093.710938 263.101562 1087.59375 263.101562 1080.144531 C 263.101562 1072.613281 256.984375 1066.574219 249.53125 1066.574219 L 85.144531 1066.574219 C 77.617188 1066.574219 71.5 1072.691406 71.5 1080.144531 Z M 71.5 1080.144531 "/><path style=" stroke:none;fill-rule:evenodd;fill:#feb100;fill-opacity:1;" d="M 201.378906 1106.101562 L 0.445312 1106.101562 L 0.445312 1133.316406 L 201.378906 1133.316406 C 208.90625 1133.316406 214.945312 1127.199219 214.945312 1119.75 C 214.945312 1112.21875 208.90625 1106.101562 201.378906 1106.101562 Z M 201.378906 1106.101562 "/><path style=" stroke:none;fill-rule:evenodd;fill:#feb100;fill-opacity:1;" d="M 84.832031 1109.632812 L 193.691406 1109.632812 C 187.886719 1109.632812 183.183594 1105.320312 183.183594 1099.90625 C 183.183594 1094.574219 187.886719 1090.261719 193.691406 1090.261719 L 84.832031 1090.261719 C 90.636719 1090.261719 95.34375 1094.574219 95.34375 1099.90625 C 95.34375 1105.320312 90.636719 1109.632812 84.832031 1109.632812 Z M 84.832031 1109.632812 "/><path style=" stroke:none;fill-rule:evenodd;fill:#feb100;fill-opacity:1;" d="M 0.445312 1095.90625 L 51.1875 1095.90625 C 59.894531 1095.90625 66.871094 1088.847656 66.871094 1080.222656 C 66.871094 1071.59375 59.8125 1064.535156 51.1875 1064.535156 L 0.445312 1064.535156 Z M 0.445312 1095.90625 "/><path style=" stroke:none;fill-rule:evenodd;fill:#feb100;fill-opacity:1;" d="M 84.832031 1033.085938 C 84.832031 1041.792969 91.890625 1048.773438 100.519531 1048.773438 L 126.480469 1048.773438 C 135.105469 1048.773438 142.164062 1041.714844 142.164062 1033.085938 C 142.164062 1024.460938 135.105469 1017.402344 126.480469 1017.402344 L 100.519531 1017.402344 C 91.890625 1017.324219 84.832031 1024.382812 84.832031 1033.085938 Z M 84.832031 1033.085938 "/><path style=" stroke:none;fill-rule:evenodd;fill:#feb100;fill-opacity:1;" d="M 158.789062 1033.085938 C 158.789062 1041.792969 165.847656 1048.773438 174.476562 1048.773438 L 299.101562 1048.773438 C 307.726562 1048.773438 314.785156 1041.714844 314.785156 1033.085938 C 314.785156 1024.460938 307.726562 1017.402344 299.101562 1017.402344 L 174.476562 1017.402344 C 165.847656 1017.324219 158.789062 1024.382812 158.789062 1033.085938 Z M 158.789062 1033.085938 "/><path style=" stroke:none;fill-rule:evenodd;fill:#aa381e;fill-opacity:1;" d="M 2454.554688 2999.789062 C 2206.957031 2932.027344 1942.496094 2906.777344 1688.621094 2892.660156 C 1550.195312 2884.972656 1397.570312 2910.539062 1263.378906 2871.089844 C 1011.152344 2796.820312 817.671875 2644.359375 633.992188 2469.546875 C 471.957031 2315.28125 308.824219 2203.523438 85.066406 2151.761719 C 62.324219 2146.507812 32.363281 2139.292969 0.445312 2133.960938 L 0.445312 2999.867188 L 2454.554688 2999.867188 Z M 2454.554688 2999.789062 "/><path style=" stroke:none;fill-rule:evenodd;fill:#632b1e;fill-opacity:1;" d="M 1668.621094 2999.789062 C 1668.933594 2996.574219 1669.09375 2993.28125 1669.25 2989.828125 C 1669.875 2972.105469 1645.640625 2938.539062 1622.820312 2904.972656 C 1606.269531 2880.660156 1590.347656 2856.269531 1585.09375 2837.917969 C 1582.035156 2827.328125 1571.132812 2772.589844 1571.132812 2772.589844 C 1537.253906 2685.925781 1478.746094 2678.632812 1427.140625 2604.207031 C 1378.277344 2533.777344 1364.945312 2422.960938 1259.617188 2387.984375 C 1162.207031 2355.671875 1083.152344 2531.660156 962.214844 2386.257812 C 915.941406 2330.65625 859.941406 2277.246094 822.691406 2217.484375 C 791.160156 2167.058594 775.320312 2111.0625 751.554688 2058.199219 C 731.710938 2014.125 713.515625 1942.601562 641.128906 1936.953125 C 530.777344 1928.40625 515.875 2120.394531 494.542969 2178.113281 C 473.761719 2234.347656 427.015625 2256.226562 391.488281 2303.519531 C 353.371094 2354.339844 343.097656 2415.433594 304.746094 2467.585938 C 276.589844 2505.859375 228.042969 2532.367188 196.515625 2568.523438 C 166.164062 2603.34375 155.652344 2709.769531 108.988281 2783.960938 C 75.5 2837.054688 24.363281 2874.777344 0.363281 2942.695312 L 0.363281 2999.632812 L 1668.621094 2999.632812 Z M 1668.621094 2999.789062 "/><path style=" stroke:none;fill-rule:evenodd;fill:#fff0d9;fill-opacity:1;" d="M 123.578125 2757.292969 C 209.300781 2756.511719 256.511719 2730.863281 351.097656 2749.765625 C 460.191406 2771.566406 553.601562 2828.503906 669.125 2830.9375 C 794.296875 2833.523438 903.15625 2767.410156 1039.308594 2793.292969 C 1081.976562 2801.449219 1107.699219 2825.527344 1142.050781 2844.660156 C 1218.128906 2886.933594 1330.359375 2855.5625 1414.042969 2855.796875 C 1441.492188 2855.875 1469.492188 2858.152344 1496.628906 2861.210938 C 1503.921875 2861.992188 1511.292969 2863.089844 1518.507812 2864.347656 C 1522.980469 2865.210938 1536.078125 2865.757812 1531.839844 2867.171875 C 1494.117188 2879.484375 1444.707031 2876.582031 1404.550781 2878.148438 C 1299.851562 2882.304688 1203.773438 2880.1875 1100.25 2867.484375 C 981.429688 2852.894531 860.257812 2873.367188 740.574219 2869.445312 C 679.949219 2867.484375 626.617188 2843.328125 567.246094 2837.367188 C 513.132812 2831.957031 459.566406 2842.074219 407.332031 2852.816406 C 316.117188 2871.5625 243.964844 2884.03125 150.554688 2870.621094 C 127.496094 2867.328125 53.070312 2867.40625 59.578125 2847.71875 C 66.636719 2826.074219 123.578125 2757.292969 123.578125 2757.292969 Z M 123.578125 2757.292969 "/><path style=" stroke:none;fill-rule:evenodd;fill:#aa381e;fill-opacity:1;" d="M 1706.03125 2999.789062 C 1686.972656 2965.4375 1656.542969 2933.128906 1622.820312 2904.972656 C 1578.507812 2868.03125 1528.625 2838.308594 1491.765625 2820.742188 C 1445.257812 2798.625 1389.730469 2792.273438 1354.4375 2751.257812 C 1295.535156 2682.710938 1271.535156 2553.386719 1171.460938 2527.113281 C 1080.796875 2503.351562 1023.703125 2640.910156 959.390625 2601.617188 C 916.648438 2575.503906 902.53125 2518.800781 883.15625 2476.292969 C 852.179688 2408.453125 789.671875 2388.691406 746.222656 2334.890625 C 711.007812 2291.363281 624.5 2056.398438 559.40625 2224.542969 C 552.347656 2242.894531 547.5625 2262.5 543.328125 2281.714844 C 535.328125 2318.027344 499.171875 2338.417969 490.859375 2374.574219 C 476.425781 2437.394531 503.328125 2489.074219 474.308594 2546.5625 C 451.957031 2590.875 379.488281 2566.796875 349.921875 2690.867188 C 341.292969 2727.023438 337.136719 2757.53125 301.21875 2793.839844 C 239.023438 2856.660156 171.496094 2772.667969 128.59375 2985.59375 C 127.574219 2990.457031 126.714844 2995.242188 125.929688 2999.789062 Z M 1706.03125 2999.789062 "/><path style=" stroke:none;fill-rule:evenodd;fill:#e27676;fill-opacity:1;" d="M 264.511719 2999.789062 L 1363.925781 2999.789062 C 1362.90625 2996.417969 1362.042969 2993.28125 1361.335938 2990.457031 C 1348.320312 2938.460938 1333.183594 2821.839844 1271.222656 2795.332031 C 1213.265625 2770.546875 1183.148438 2816.664062 1152.640625 2846.699219 C 1111.542969 2887.089844 1091.386719 2913.675781 1021.742188 2910.070312 C 1001.976562 2909.050781 980.800781 2909.441406 962.449219 2902.699219 C 932.019531 2891.5625 909.117188 2853.054688 885.433594 2834.546875 C 826.847656 2788.507812 771.320312 2796.902344 729.832031 2722.945312 C 709.675781 2687.023438 684.5 2610.714844 621.128906 2612.910156 C 555.328125 2615.1875 506.9375 2684.121094 477.996094 2723.886719 C 419.488281 2804.507812 392.980469 2880.582031 315.882812 2957.359375 C 299.414062 2973.75 282.003906 2987.398438 264.511719 2999.789062 Z M 264.511719 2999.789062 "/><path style=" stroke:none;fill-rule:evenodd;fill:#fff0d9;fill-opacity:1;" d="M 1388.082031 2530.640625 C 1450.902344 2538.40625 1512.390625 2567.34375 1538.742188 2615.8125 C 1547.683594 2632.125 1571.917969 2669.457031 1540.625 2680.515625 C 1519.683594 2687.886719 1492.15625 2677.535156 1473.332031 2670.398438 C 1438.980469 2657.457031 1400.867188 2641.222656 1361.417969 2644.046875 C 1331.847656 2646.164062 1317.183594 2663.339844 1294.4375 2676.125 C 1265.183594 2692.515625 1233.421875 2704.90625 1198.050781 2710.082031 C 1085.894531 2726.316406 965.902344 2679.886719 858.84375 2659.261719 C 794.140625 2646.792969 731.789062 2655.96875 667.714844 2646.554688 C 651.871094 2644.28125 634.460938 2641.539062 620.421875 2634.871094 C 618.933594 2634.164062 610.148438 2629.773438 611.875 2627.578125 C 633.675781 2599.734375 706.851562 2610.246094 740.027344 2611.65625 C 809.75 2614.636719 879.628906 2614.792969 949.351562 2617.460938 C 995.15625 2619.265625 1049.664062 2621.144531 1090.914062 2601.695312 C 1152.5625 2572.679688 1190.128906 2531.738281 1269.65625 2541.621094 C 1308.476562 2546.40625 1334.042969 2582.089844 1372.554688 2579.34375 C 1385.101562 2578.480469 1388.082031 2530.640625 1388.082031 2530.640625 Z M 1388.082031 2530.640625 "/><path style=" stroke:none;fill-rule:evenodd;fill:#fff0d9;fill-opacity:1;" d="M 422.15625 2269.167969 C 392.507812 2300.226562 470.9375 2331.4375 511.015625 2336.300781 C 543.484375 2340.300781 577.363281 2338.183594 609.285156 2333.085938 C 632.65625 2329.320312 659.949219 2321.558594 684.578125 2324.144531 C 726.457031 2328.617188 748.886719 2356.847656 786.0625 2367.828125 C 847.785156 2386.101562 922.449219 2380.925781 987.859375 2376.769531 C 1037.664062 2373.554688 1086.445312 2369.945312 1136.5625 2369.554688 C 1154.128906 2369.398438 1171.539062 2367.75 1188.871094 2366.101562 C 1194.207031 2365.554688 1199.617188 2365.082031 1204.871094 2364.222656 C 1207.148438 2363.828125 1214.125 2362.730469 1211.851562 2363.125 C 1170.597656 2369.867188 1128.71875 2368.925781 1087.152344 2373.554688 C 904.648438 2393.945312 712.574219 2417.628906 527.796875 2394.652344 C 513.289062 2392.847656 498.621094 2391.433594 484.191406 2389.394531 C 427.015625 2381.316406 284.199219 2355.988281 350.628906 2300.382812 C 361.136719 2291.519531 422.15625 2269.167969 422.15625 2269.167969 Z M 422.15625 2269.167969 "/></g></svg>